<svg width="229" height="198" viewBox="0 0 229 198" fill="none" xmlns="http://www.w3.org/2000/svg">
<g id="Group">
<g id="Group_2">
<g id="Group_3">
<g id="Group_4">
<path id="Vector" d="M119.364 180.629C119.454 185.992 116.182 191.406 108.767 191.406C106.165 191.406 103.043 191.406 100.432 191.406V170.202C103.033 170.202 106.155 170.202 108.767 170.202C116.032 170.212 119.274 175.385 119.364 180.629ZM104.394 187.563H108.757C113.57 187.563 115.472 184.051 115.392 180.598C115.301 177.296 113.36 173.994 108.757 173.994H104.394V187.563Z" fill="#808080"/>
<path id="Vector_2" d="M140.808 191.416H136.055L129.871 184.331H126.029V191.416H122.026V170.182C125.388 170.182 128.74 170.212 132.113 170.212C137.116 170.242 139.738 173.574 139.738 177.236C139.738 180.138 138.407 183.08 134.374 183.901L140.788 191.135L140.808 191.416ZM126.029 173.934V180.719H132.123C134.664 180.719 135.755 179.027 135.755 177.326C135.755 175.635 134.634 173.934 132.123 173.934H126.029Z" fill="#808080"/>
<path id="Vector_3" d="M157.499 187.403H146.412L144.591 191.396H140.258L149.774 170.192H154.137L163.653 191.396H159.291L157.499 187.403ZM151.956 174.665L148.023 183.691H155.898L151.956 174.665Z" fill="#808080"/>
<path id="Vector_4" d="M180.234 175.385C178.814 174.024 176.692 173.264 174.841 173.264C170.298 173.264 167.536 176.716 167.536 181.079C167.536 184.561 169.567 188.163 174.841 188.163C176.512 188.163 177.963 187.803 179.634 186.472V182.71H174.221V179.128H183.307V188.063C181.215 190.455 178.583 191.876 174.861 191.876C166.896 191.876 163.654 186.642 163.654 181.059C163.654 175.095 167.376 169.581 174.861 169.581C177.713 169.581 180.555 170.672 182.736 172.823L180.234 175.385Z" fill="#808080"/>
<path id="Vector_5" d="M207.402 180.939C207.342 186.422 203.98 191.896 196.535 191.896C189.09 191.896 185.628 186.532 185.628 180.959C185.628 175.385 189.21 169.781 196.535 169.781C203.83 169.781 207.472 175.385 207.402 180.939ZM189.571 181.029C189.661 184.511 191.542 188.244 196.535 188.244C201.529 188.244 203.41 184.491 203.47 181.009C203.53 177.426 201.529 173.434 196.535 173.434C191.542 173.434 189.481 177.446 189.571 181.029Z" fill="#808080"/>
<path id="Vector_6" d="M224.274 170.182H228.266V191.416H225.785V191.446L214.637 177.126V191.416H210.645V170.212H213.887L224.274 183.36V170.182Z" fill="#808080"/>
</g>
</g>
<g id="Group_5">
<path id="Vector_7" d="M1.80625 184.091V191.426H0.165161V170.212C3.25721 170.212 6.37928 170.212 9.47132 170.212C18.6874 170.212 18.6874 184.091 9.47132 184.091H1.80625ZM1.80625 171.723V182.6H9.47132C16.536 182.6 16.536 171.723 9.47132 171.723H1.80625Z" fill="#EA4216"/>
<path id="Vector_8" d="M20.4686 176.446L20.5287 179.118C21.4693 177.086 23.5907 176.296 25.502 176.296C26.6227 176.266 27.7134 176.566 28.7141 177.176L28.0436 178.387C27.2531 177.907 26.3725 177.687 25.502 177.687C22.7101 177.717 20.5587 179.958 20.5587 182.69V191.416H19.0777V176.446H20.4686Z" fill="#EA4216"/>
<path id="Vector_9" d="M30.2551 183.961C30.2551 179.198 33.6474 176.176 37.8602 176.176C42.073 176.176 45.4652 179.208 45.4652 183.961C45.4652 188.714 42.073 191.626 37.8602 191.626C33.6474 191.626 30.2551 188.724 30.2551 183.961ZM44.0142 183.961C44.0142 180.078 41.2524 177.566 37.8602 177.566C34.4679 177.566 31.7061 180.078 31.7061 183.961C31.7061 187.843 34.4679 190.175 37.8602 190.175C41.2524 190.175 44.0142 187.843 44.0142 183.961Z" fill="#EA4216"/>
<path id="Vector_10" d="M50.6486 176.416V192.877C50.6786 195.759 49.9781 198 46.6459 198C45.6153 198 44.8548 197.76 43.9442 197.27L44.3644 195.999C45.0649 196.389 45.8454 196.609 46.6359 196.609C48.9375 196.609 49.1776 194.908 49.1776 192.877V176.416H50.6486ZM48.7073 171.422C48.7073 172.993 51.0989 172.993 51.0989 171.422C51.0989 169.841 48.7073 169.841 48.7073 171.422Z" fill="#EA4216"/>
<path id="Vector_11" d="M53.8307 183.931C53.8307 179.448 57.2229 176.206 61.4357 176.206C65.6485 176.206 69.411 178.777 68.8306 184.631H55.3417C55.6419 188.143 58.3437 190.175 61.4357 190.175C63.407 190.175 65.7086 189.384 66.8293 187.903L67.89 188.754C66.439 190.665 63.8273 191.636 61.4357 191.636C57.2229 191.636 53.8307 188.694 53.8307 183.931ZM67.4997 183.33C67.4697 179.628 65.0481 177.576 61.4357 177.576C58.3437 177.576 55.6819 179.668 55.3417 183.33H67.4997Z" fill="#EA4216"/>
<path id="Vector_12" d="M84.9513 189.334C83.4403 190.845 81.469 191.576 79.4977 191.576C75.2849 191.576 71.8026 188.664 71.8026 183.941C71.8026 179.218 75.1648 176.306 79.4977 176.306C81.469 176.306 83.4403 177.066 84.9513 178.547L83.9807 179.488C82.7699 178.277 81.0988 177.697 79.4977 177.697C76.1055 177.697 73.2536 179.908 73.2536 183.941C73.2536 187.973 76.1055 190.185 79.4977 190.185C81.1088 190.185 82.7399 189.544 83.9507 188.334L84.9513 189.334Z" fill="#EA4216"/>
<path id="Vector_13" d="M91.3956 171.933V176.446H96.489V177.687H91.3956V186.813C91.3956 188.844 91.8159 190.265 94.1574 190.265C94.8879 190.265 95.6984 190.025 96.4589 189.654L96.9693 190.865C96.0286 191.316 95.088 191.626 94.1474 191.626C90.9653 191.626 89.9346 189.745 89.9346 186.803V177.677H86.7525V176.436H89.9346V172.073L91.3956 171.933Z" fill="#EA4216"/>
</g>
</g>
<g id="Group_6">
<g id="Group_7">
<path id="Vector_14" d="M100.442 15.586C100.662 15.576 100.872 15.576 101.072 15.576C99.3309 14.1551 97.6198 13.8249 97.6198 13.8249C97.6198 13.8249 98.6705 14.9656 98.8906 15.7361C99.3909 15.6661 99.9013 15.6061 100.442 15.586Z" fill="url(#paint0_linear_114_19)"/>
</g>
<g id="Group_8">
<path id="Vector_15" d="M109.318 18.1978L108.867 17.2271C107.847 15.8262 105.415 14.2451 103.914 13.3746C102.983 12.8342 100.582 12.4239 100.582 12.4239C100.582 12.4239 102.323 13.9349 103.173 15.3259C103.264 15.476 103.334 15.6261 103.404 15.7862C105.855 16.2064 107.827 17.2071 109.318 18.1978Z" fill="url(#paint1_linear_114_19)"/>
</g>
<g id="Group_9">
<path id="Vector_16" d="M86.7326 20.3792C86.7326 20.3792 85.2716 19.4686 84.5611 19.4086C83.8507 19.3485 82.6198 19.6988 82.6198 19.6988C82.6198 19.6988 84.331 20.2991 85.3216 22.2304C85.6518 22.8809 85.852 23.7915 85.9821 24.652C86.6525 24.3018 87.413 23.5613 88.0935 22.8508C88.4537 22.4706 88.8239 22.0603 89.1742 21.6601C89.8847 20.8595 90.5551 20.109 91.2356 19.5487C89.9947 18.3078 87.7332 16.6968 85.902 16.0263C84.8913 15.6561 82.5398 15.6361 82.5398 15.6361C82.5398 15.6361 84.5211 16.7968 85.6418 17.9776C86.6425 19.0283 86.7326 20.3792 86.7326 20.3792Z" fill="url(#paint2_linear_114_19)"/>
</g>
<g id="Group_10">
<path id="Vector_17" d="M93.1668 17.4873C93.1668 17.4873 91.986 16.7868 91.0854 16.6567C90.365 16.5567 89.1041 16.3765 89.1041 16.3765C89.1041 16.3765 90.6752 17.5073 91.896 19.0283C93.1668 18.0577 95.1681 16.6367 97.8699 15.9563C97.8399 15.9363 97.8199 15.9062 97.7899 15.8862C96.429 14.7955 93.8072 13.4746 91.7959 13.1244C90.7352 12.9343 88.3436 13.3746 88.3436 13.3746C88.3436 13.3746 90.495 14.1951 91.7759 15.2158C92.9066 16.1064 93.1668 17.4873 93.1668 17.4873Z" fill="url(#paint3_linear_114_19)"/>
</g>
<g id="Group_11">
<path id="Vector_18" d="M105.425 38.1009C105.745 38.0809 105.925 37.9608 105.995 37.8608C106.015 37.8408 106.055 37.7707 105.995 37.6006C105.925 37.4005 105.875 37.2404 105.225 37.2404C104.905 37.2404 104.494 37.2904 103.984 37.3805C102.253 37.7107 100.742 38.6713 99.7812 39.4118C100.312 39.3818 100.852 39.3518 101.412 39.3217C101.813 39.0516 102.223 38.8214 102.623 38.6613C103.624 38.261 104.524 38.171 105.425 38.1009Z" fill="url(#paint4_linear_114_19)"/>
</g>
<g id="Group_12">
<path id="Vector_19" d="M125.848 89.3349C126.769 90.7858 127.89 91.3262 128.53 91.5363C127.57 90.4156 126.519 89.3749 125.398 88.4143C125.498 88.7044 125.648 89.0147 125.848 89.3349Z" fill="url(#paint5_linear_114_19)"/>
</g>
<g id="Group_13">
<path id="Vector_20" d="M92.0761 81.5597C92.1661 81.5597 92.2562 81.5597 92.3262 81.5597C92.5464 81.5597 92.6665 81.5597 92.6665 81.5597C92.6665 81.5597 92.6565 81.5597 92.6264 81.5597C92.5764 81.5497 92.4763 81.5497 92.3262 81.5297C92.2562 81.5197 92.1661 81.5097 92.0761 81.5097C91.886 81.4897 91.6558 81.4797 91.3956 81.4696C91.1355 81.4496 90.8353 81.4596 90.515 81.4696C90.1948 81.4696 89.8446 81.5197 89.4744 81.5397C89.2942 81.5697 89.1041 81.5897 88.904 81.6197C88.8039 81.6398 88.7139 81.6498 88.6138 81.6698C88.5137 81.6898 88.4137 81.7098 88.3236 81.7398C87.7332 81.8799 87.1128 82.07 86.5224 82.3302C86.3223 82.4103 86.1221 82.5103 85.932 82.6004C85.1615 83.0007 84.431 83.471 83.7906 83.9713C83.4704 84.2115 83.1802 84.4816 82.9 84.7218C82.6298 84.982 82.3797 85.2221 82.1495 85.4423C81.9294 85.6724 81.7292 85.8926 81.5491 86.0827C81.369 86.2728 81.2289 86.4529 81.1088 86.593C80.8687 86.8832 80.7286 87.0433 80.7286 87.0433C80.7286 87.0433 80.8086 86.9533 80.9687 86.8032C81.0188 86.7531 81.0788 86.6931 81.1489 86.6231C81.409 86.3529 81.7993 85.9826 82.2596 85.5423C82.4997 85.3322 82.7599 85.1021 83.0401 84.8619C83.3303 84.6417 83.6205 84.3816 83.9407 84.1514C84.1008 84.0313 84.2609 83.9113 84.431 83.7912C84.6011 83.6711 84.7712 83.561 84.9514 83.451C85.3116 83.2308 85.6819 83.0207 86.0521 82.8306C86.8026 82.4303 87.6131 82.1501 88.3736 81.96C88.7539 81.8499 89.1341 81.7899 89.4944 81.7198C89.8546 81.6798 90.1948 81.6097 90.515 81.5997C90.8353 81.5797 91.1255 81.5497 91.3856 81.5497C91.6558 81.5697 91.886 81.5597 92.0761 81.5597Z" fill="url(#paint6_linear_114_19)"/>
</g>
<g id="Group_14">
<path id="Vector_21" d="M167.516 89.1347C167.436 88.9446 167.346 88.7545 167.236 88.5844C166.846 88.9246 166.505 89.3148 166.225 89.7451C165.685 90.6257 165.225 91.5463 164.834 92.5069C164.454 93.4576 163.974 94.3682 163.393 95.1987C162.703 96.1894 161.592 96.8498 160.301 97.0499C160.281 97.06 160.251 97.06 160.231 97.06C160.201 97.0499 160.141 96.9599 160.141 96.9399C160.141 96.8898 160.211 96.3695 160.211 96.3695C160.541 94.1881 161.302 92.1267 162.443 90.2755C163.493 88.5743 164.464 86.8332 165.355 85.042C165.575 84.5417 165.725 84.0013 165.815 83.451C165.945 82.7105 165.795 81.9299 165.395 81.2195C164.784 81.4596 164.274 81.8599 163.934 82.3902C163.593 82.9306 163.323 83.501 163.123 84.1114C162.903 84.7818 162.623 85.4323 162.303 86.0527C161.982 86.6631 161.482 87.1634 160.842 87.4936C160.782 87.5036 160.712 87.5136 160.661 87.5437C160.501 87.6037 160.351 87.6838 160.211 87.7738C160.041 87.8839 159.861 87.9839 159.671 88.074C159.451 88.1741 159.191 88.1941 158.94 88.1441L159.301 87.3435C160.421 85.2021 161.492 83.0307 162.503 80.8292C163.473 78.7278 163.904 76.3863 163.754 73.9947C163.693 73.9046 163.643 73.8046 163.593 73.7145L162.983 72.4337C162.793 72.0434 162.533 71.6732 162.203 71.3529C162.042 71.473 161.902 71.6131 161.792 71.7832C161.572 72.1235 161.482 72.5237 161.522 72.944C161.562 73.3643 161.642 73.7845 161.762 74.1948C161.902 74.6651 162.002 75.1455 162.042 75.6258C162.112 76.2662 161.922 76.8866 161.512 77.3569C161.312 77.3169 161.122 77.2168 160.962 77.0767C160.782 76.9066 160.621 76.7165 160.491 76.5064L159.981 75.5957C159.881 75.3256 159.811 75.0454 159.771 74.7652C159.691 74.0647 159.671 73.3743 159.701 72.6838C159.741 72.0334 159.711 71.3629 159.611 70.7025C159.501 69.982 159.14 69.2916 158.57 68.7412C158.39 69.1014 158.24 69.4817 158.12 69.872C157.73 71.2529 157.539 72.7038 157.539 74.1748C157.539 75.6558 157.409 77.1068 157.139 78.5377C157.079 78.6278 157.029 78.7178 156.989 78.8279C156.929 79.018 156.889 79.2081 156.859 79.4083C156.829 79.5384 156.799 79.6684 156.749 79.7985C156.729 79.8586 156.689 79.9086 156.649 79.9586C156.599 80.0087 156.519 80.0387 156.429 80.0287C156.359 80.0187 156.289 79.9987 156.229 79.9686C155.698 79.4883 155.288 78.9179 155.018 78.2875C154.968 78.1574 154.928 78.0374 154.888 77.9073C154.698 77.3269 154.607 76.7365 154.597 76.1461C154.597 76.006 154.597 75.8559 154.607 75.7158C154.678 74.7752 154.768 73.8446 154.888 72.924C155.198 71.3129 155.378 69.6818 155.448 68.0207C155.538 66.0694 154.998 64.0681 153.887 62.2669C153.447 62.7272 153.187 63.3276 153.157 63.9781C153.126 64.5484 153.147 65.1188 153.217 65.6892C153.277 66.1995 153.287 66.6999 153.247 67.2002C153.207 67.7005 152.996 68.1508 152.656 68.5011L152.586 68.5811L152.466 68.7412L151.956 69.4317C151.856 69.5718 151.746 69.6918 151.616 69.8019C151.565 69.8519 151.495 69.892 151.425 69.912C151.375 69.932 151.315 69.932 151.255 69.922C151.185 69.902 151.125 69.862 151.075 69.8219C151.015 69.7619 150.965 69.6918 150.915 69.6218C150.805 69.4217 150.705 69.2015 150.645 68.9914C150.515 68.7712 150.415 68.5511 150.345 68.3209C150.165 67.7105 150.104 67.0901 150.165 66.4897L150.395 64.2883L150.445 63.818C150.725 61.6065 150.275 59.295 149.164 57.1635C149.204 58.5945 149.024 60.0054 148.644 61.3463C148.463 61.9767 148.253 62.5871 147.983 63.1875C147.543 64.1482 147.123 65.1188 146.742 66.1095C146.402 66.98 146.292 67.9307 146.422 68.8913C146.422 69.0014 146.422 69.1215 146.432 69.2315C146.542 70.7726 146.952 72.3236 147.643 73.7946C148.093 74.7552 148.523 75.7258 148.914 76.7165C149.114 77.2168 149.234 77.7372 149.274 78.2575C149.294 78.5077 149.294 78.7478 149.284 78.998C149.284 79.1981 148.894 79.6584 148.864 79.6184C147.893 79.4683 146.972 78.988 146.292 78.2675C145.812 77.7472 145.381 77.1868 144.991 76.5964C144.891 76.4563 144.791 76.3262 144.701 76.1861C144.04 75.1054 143.54 73.9647 143.21 72.7939C142.9 71.6832 142.519 70.5824 142.079 69.4917C141.549 68.1908 140.608 67.0301 139.397 66.1695C139.427 66.3396 139.447 66.5197 139.457 66.6898C139.477 67.6105 139.367 68.5111 139.137 69.3716C138.877 70.2922 138.687 71.2329 138.537 72.1935C138.417 73.024 138.507 73.8946 138.827 74.7352L138.847 74.8452C139.167 76.3462 139.818 77.8072 140.768 79.1181C142.159 81.0394 143.73 82.8506 145.441 84.5417C144.251 84.3916 143.09 83.9413 142.099 83.2308C141.059 82.4603 140.108 81.5797 139.277 80.6091C138.367 79.5284 137.406 78.4877 136.405 77.477C136.385 77.447 136.345 77.427 136.315 77.427C136.275 77.427 136.235 77.427 136.195 77.447C136.165 77.467 136.135 77.487 136.115 77.517C136.095 77.547 136.105 77.5771 136.115 77.6171C136.155 78.7178 136.385 79.8386 136.796 80.9093C137.766 83.2808 141.269 87.6737 141.269 87.6737L143.44 89.2248C144.131 89.6951 144.751 90.2454 145.291 90.8559C146.042 91.7064 146.342 92.7871 146.112 93.7678C145.531 93.4376 145.001 93.0273 144.531 92.567C144.06 92.1067 143.58 91.6564 143.08 91.2261C142.559 90.7858 141.949 90.4656 141.299 90.2955C141.329 90.5957 141.389 90.9059 141.479 91.1961C141.779 92.0867 142.209 92.9472 142.76 93.7578C142.76 93.7578 143.41 94.6584 144.06 95.549L145.842 97.8905C145.842 97.8905 154.778 109.428 136.536 120.415C134.624 121.506 132.553 122.487 130.291 123.327L132.313 126.539L131.372 130.412L131.882 126.529L130.281 123.317C129.071 123.768 127.78 124.168 126.469 124.538L111.079 109.148L111.549 108.668C111.659 108.548 111.779 108.437 111.889 108.327C113.41 106.786 114.881 105.295 116.212 103.935C116.502 103.644 116.772 103.364 117.053 103.084C118.424 101.693 119.624 100.472 120.605 99.4816C120.965 99.1113 121.325 98.8111 121.676 98.571C121.796 98.4909 121.906 98.4209 122.026 98.3508C122.716 97.9405 123.387 97.7404 124.047 97.6403C124.598 97.5603 125.158 97.5503 125.708 97.5603C125.818 97.5603 125.928 97.5603 126.049 97.5603C126.369 97.5603 126.699 97.5703 127.019 97.5603C127.56 97.5503 128.11 97.5003 128.67 97.3602C129.001 97.2801 129.331 97.16 129.671 97.0099C129.781 96.9599 129.891 96.8999 130.001 96.8398C130.451 96.5897 130.892 96.2494 131.342 95.7891C131.492 95.639 131.632 95.4889 131.762 95.3388C131.792 95.3088 131.822 95.2688 131.852 95.2388C131.982 95.0987 132.103 94.9486 132.223 94.8185C132.233 94.8085 132.243 94.7885 132.253 94.7785C132.363 94.6484 132.463 94.5283 132.553 94.3982C132.573 94.3682 132.603 94.3382 132.623 94.3081C132.723 94.178 132.823 94.048 132.913 93.9179C132.923 93.8979 132.943 93.8779 132.953 93.8578C133.033 93.7478 133.103 93.6377 133.173 93.5276C133.193 93.4976 133.213 93.4776 133.223 93.4476C133.303 93.3275 133.373 93.2074 133.433 93.0973C133.443 93.0773 133.463 93.0473 133.473 93.0273C133.534 92.9272 133.584 92.8272 133.634 92.7371C133.644 92.7171 133.654 92.6871 133.664 92.6671C133.714 92.557 133.764 92.4569 133.814 92.3568C133.824 92.3368 133.834 92.3068 133.844 92.2868C133.884 92.1967 133.924 92.1067 133.954 92.0266C133.964 92.0066 133.964 91.9966 133.974 91.9766C134.014 91.8865 134.044 91.7865 134.074 91.7064C134.084 91.6864 134.084 91.6664 134.094 91.6364C134.124 91.5563 134.144 91.4763 134.164 91.4062C134.164 91.3962 134.174 91.3862 134.174 91.3762C134.194 91.2961 134.214 91.2161 134.234 91.136C134.234 91.116 134.244 91.096 134.244 91.076C134.264 91.006 134.274 90.9359 134.284 90.8659C134.284 90.8659 134.284 90.8659 134.284 90.8559C134.294 90.7858 134.304 90.7258 134.314 90.6657C134.314 90.6457 134.314 90.6357 134.314 90.6257C134.324 90.5657 134.324 90.5156 134.324 90.4556C134.324 90.4456 134.324 90.4456 134.324 90.4356C134.324 90.3855 134.324 90.3455 134.324 90.3055C134.324 90.2955 134.324 90.2955 134.324 90.2855V90.2755C134.324 90.2254 134.324 90.1754 134.324 90.1354C134.324 90.1254 134.324 90.1254 134.324 90.1154C134.324 90.0753 134.314 90.0453 134.314 90.0153C134.314 90.0053 134.314 90.0053 134.314 90.0053C134.314 89.9753 134.304 89.9553 134.304 89.9352C134.304 89.9352 134.304 89.9352 134.304 89.9252C134.304 89.9052 134.294 89.8952 134.294 89.8952L134.154 89.3048L128.76 92.1167C128.71 92.1067 128.64 92.0967 128.56 92.0767C128.4 92.0366 128.18 91.9666 127.93 91.8665C127.86 91.8365 127.78 91.7965 127.7 91.7564C127.52 91.6664 127.319 91.5563 127.119 91.4262C126.959 91.3162 126.789 91.1961 126.619 91.056C126.489 90.9459 126.369 90.8258 126.239 90.6957C126.159 90.6157 126.079 90.5256 125.999 90.4356C125.868 90.2855 125.738 90.1354 125.618 89.9653C125.538 89.8552 125.458 89.7351 125.378 89.615C125.308 89.505 125.238 89.3949 125.188 89.2848C125.168 89.2548 125.158 89.2148 125.138 89.1847C125.098 89.1147 125.068 89.0346 125.038 88.9646C125.018 88.9246 125.008 88.8946 124.988 88.8545C124.958 88.7845 124.938 88.7244 124.908 88.6544C124.898 88.6244 124.888 88.5944 124.878 88.5543C124.858 88.4743 124.828 88.4042 124.818 88.3342C124.818 88.3142 124.808 88.2942 124.808 88.2841C124.788 88.1941 124.768 88.104 124.758 88.024C124.758 88.004 124.748 87.9739 124.748 87.9539C124.738 87.8939 124.738 87.8338 124.728 87.7738C124.728 87.7438 124.728 87.7238 124.728 87.6938C124.728 87.6537 124.728 87.6137 124.728 87.5637C124.728 87.5036 124.728 87.4536 124.738 87.4036C124.738 87.3735 124.738 87.3435 124.748 87.3135C124.758 87.2535 124.768 87.2034 124.778 87.1434C124.778 87.1234 124.788 87.1034 124.788 87.0834C124.808 87.0133 124.818 86.9433 124.838 86.8832C124.838 86.8732 124.848 86.8632 124.848 86.8432C124.868 86.7932 124.878 86.7431 124.898 86.7031C124.908 86.6831 124.918 86.6631 124.918 86.6531C124.938 86.623 124.948 86.583 124.968 86.553C124.978 86.533 124.988 86.523 124.998 86.503C125.018 86.4729 125.028 86.4529 125.038 86.4229C125.048 86.4129 125.058 86.3929 125.058 86.3829C125.078 86.3629 125.088 86.3429 125.098 86.3229C125.108 86.3128 125.108 86.3028 125.118 86.3028C125.138 86.2828 125.148 86.2628 125.168 86.2428L130.301 83.4409L130.291 83.4309L129.851 82.9906C129.601 82.7405 129.331 82.5403 129.041 82.3702C128.94 82.3102 128.83 82.2502 128.72 82.2001C128.2 81.96 127.62 81.8299 126.949 81.8199C125.758 81.7999 124.317 82.1501 122.536 82.8706C118.834 84.3615 118.283 87.7138 118.283 89.585C118.283 91.4563 116.963 93.0873 113.991 96.0193C112.49 97.5103 109.408 100.582 105.955 104.035L104.594 102.674L91.976 90.0553C91.6858 89.7251 91.4457 89.4149 91.2155 89.1247C91.1555 89.0447 91.1054 88.9746 91.0454 88.9046C90.6151 88.3242 90.3049 87.8439 90.1048 87.4336C89.9947 87.2134 89.9146 87.0233 89.8546 86.8532C89.7345 86.503 89.7145 86.2428 89.7445 86.0327C89.7746 85.8325 89.8546 85.6824 89.9547 85.5824C90.0047 85.5323 90.0647 85.4823 90.1248 85.4323C90.1448 85.4122 90.1648 85.4022 90.1848 85.3822C90.2249 85.3522 90.2749 85.3222 90.3149 85.2822C90.3449 85.2622 90.3649 85.2421 90.395 85.2321C90.445 85.2021 90.485 85.1721 90.5351 85.1521C90.5651 85.1321 90.5951 85.1221 90.6251 85.102C90.6751 85.072 90.7252 85.052 90.7752 85.022C90.8052 85.002 90.8353 84.992 90.8753 84.972C90.9353 84.9419 90.9954 84.9219 91.0554 84.8919C91.0854 84.8819 91.1154 84.8619 91.1555 84.8519C91.2255 84.8219 91.3056 84.7918 91.3856 84.7618C91.4056 84.7518 91.4256 84.7518 91.4457 84.7418C91.5457 84.7018 91.6458 84.6718 91.7559 84.6417C91.7859 84.6317 91.8159 84.6217 91.8459 84.6117C91.926 84.5917 92.006 84.5617 92.0861 84.5417C92.1261 84.5317 92.1661 84.5217 92.2062 84.5117C92.2762 84.4916 92.3563 84.4716 92.4263 84.4516C92.4763 84.4416 92.5164 84.4316 92.5664 84.4216C92.6364 84.4016 92.7165 84.3916 92.7966 84.3716C92.8466 84.3615 92.8866 84.3515 92.9366 84.3415C93.0167 84.3215 93.0967 84.3115 93.1768 84.2915C93.2168 84.2815 93.2669 84.2715 93.3069 84.2615C93.3969 84.2415 93.487 84.2315 93.5871 84.2115C93.6171 84.2014 93.6571 84.2014 93.6871 84.1914C93.8172 84.1714 93.9473 84.1514 94.0774 84.1314C94.0874 84.1314 94.0974 84.1314 94.1074 84.1214C94.2275 84.1014 94.3476 84.0814 94.4677 84.0714C94.5077 84.0614 94.5577 84.0613 94.5977 84.0513C94.6878 84.0413 94.7779 84.0313 94.8679 84.0213C94.918 84.0113 94.968 84.0113 95.018 84.0013C95.1081 83.9913 95.1881 83.9813 95.2782 83.9713C95.3282 83.9613 95.3783 83.9613 95.4283 83.9513C95.5184 83.9413 95.6084 83.9313 95.6885 83.9213C95.7385 83.9113 95.7885 83.9113 95.8386 83.9113C95.9286 83.9012 96.0287 83.8912 96.1188 83.8912C96.1588 83.8912 96.2088 83.8812 96.2488 83.8812C96.3789 83.8712 96.509 83.8612 96.6391 83.8512C96.6491 83.8512 96.6491 83.8512 96.6591 83.8512C96.7992 83.8412 96.9393 83.8312 97.0694 83.8212C97.0994 83.8212 97.1394 83.8212 97.1694 83.8112C97.2695 83.8012 97.3696 83.8012 97.4696 83.7912C97.5197 83.7912 97.5597 83.7912 97.6097 83.7812C97.6998 83.7812 97.7799 83.7712 97.8699 83.7712C97.9199 83.7712 97.97 83.7712 98.02 83.7612C98.1001 83.7612 98.1901 83.7511 98.2702 83.7511C98.3202 83.7511 98.3602 83.7511 98.4103 83.7411C98.4903 83.7411 98.5804 83.7311 98.6604 83.7311C98.7005 83.7311 98.7505 83.7311 98.7905 83.7311C98.8906 83.7311 98.9806 83.7211 99.0707 83.7211C99.1007 83.7211 99.1207 83.7211 99.1508 83.7211C99.2708 83.7211 99.3909 83.7211 99.511 83.7111C99.541 83.7111 99.561 83.7111 99.5911 83.7111C99.6811 83.7111 99.7712 83.7111 99.8512 83.7111C99.8913 83.7111 99.9313 83.7111 99.9613 83.7111H100.161C100.231 83.7111 100.302 83.7111 100.372 83.7111C100.412 83.7111 100.462 83.7111 100.502 83.7111C100.572 83.7111 100.642 83.7111 100.712 83.7111C100.752 83.7111 100.782 83.7111 100.822 83.7111C100.892 83.7111 100.962 83.7111 101.032 83.7111C101.062 83.7111 101.092 83.7111 101.112 83.7111C101.202 83.7111 101.292 83.7211 101.382 83.7211H101.402C101.442 83.7211 101.472 83.7111 101.502 83.7011C101.532 83.7011 101.552 83.7011 101.582 83.6911C101.622 83.6811 101.652 83.6611 101.682 83.6411C101.702 83.6311 101.732 83.6211 101.742 83.601C101.772 83.571 101.803 83.541 101.823 83.511C101.833 83.491 101.853 83.481 101.863 83.461C101.893 83.4109 101.923 83.3509 101.943 83.2808C102.003 83.0207 101.863 82.7505 101.622 82.6404C101.292 82.4903 100.962 82.3602 100.632 82.2301C100.532 82.1901 100.442 82.1501 100.342 82.1101C100.111 82.02 99.8712 81.9299 99.6411 81.8399C99.541 81.7999 99.451 81.7698 99.3509 81.7298C99.0707 81.6297 98.8005 81.5297 98.5303 81.4396C98.5003 81.4296 98.4603 81.4196 98.4303 81.3996C98.1301 81.2995 97.8299 81.1995 97.5397 81.1094C97.4596 81.0794 97.3796 81.0594 97.2995 81.0394C97.0894 80.9693 96.8693 80.9093 96.6591 80.8492C96.569 80.8292 96.489 80.7992 96.3989 80.7792C96.1688 80.7191 95.9386 80.6591 95.7185 80.5991C95.6685 80.5891 95.6184 80.569 95.5684 80.559C95.2982 80.499 95.038 80.439 94.7779 80.3789C94.7078 80.3689 94.6478 80.3489 94.5777 80.3389C94.3776 80.2989 94.1875 80.2688 93.9974 80.2288C93.9173 80.2188 93.8372 80.1988 93.7672 80.1888C93.5671 80.1588 93.3769 80.1287 93.1868 80.0987C93.1368 80.0887 93.0767 80.0787 93.0267 80.0787C92.7865 80.0487 92.5564 80.0187 92.3262 79.9987C92.2762 79.9887 92.2262 79.9887 92.1661 79.9887C91.986 79.9786 91.8059 79.9586 91.6358 79.9486C91.5657 79.9486 91.4957 79.9386 91.4256 79.9386C91.2555 79.9286 91.0954 79.9286 90.9353 79.9286C90.8753 79.9286 90.8252 79.9286 90.7652 79.9286C90.7452 79.9286 90.7252 79.9286 90.6952 79.9286C90.6351 79.9286 90.5851 79.9286 90.525 79.9286C90.3349 79.9286 90.1448 79.9386 89.9547 79.9386C89.8646 79.9386 89.7746 79.9486 89.6945 79.9586C89.5244 79.9686 89.3543 79.9786 89.1942 79.9987C89.1141 80.0087 89.0341 80.0187 88.954 80.0287C88.7739 80.0487 88.5938 80.0787 88.4137 80.0987C88.3636 80.1087 88.3136 80.1087 88.2535 80.1187C88.0234 80.1588 87.8032 80.1988 87.5931 80.2488C87.5431 80.2588 87.493 80.2688 87.443 80.2889C87.2829 80.3289 87.1128 80.3689 86.9627 80.4089C86.8926 80.429 86.8226 80.449 86.7626 80.469C86.6225 80.509 86.4924 80.559 86.3523 80.5991C86.2822 80.6191 86.2222 80.6391 86.1522 80.6691C86.0121 80.7191 85.872 80.7792 85.7319 80.8292C85.6818 80.8492 85.6418 80.8692 85.5918 80.8893C85.4117 80.9693 85.2315 81.0494 85.0614 81.1294C85.0314 81.1394 85.0014 81.1594 84.9714 81.1694C84.8313 81.2395 84.6912 81.3095 84.5611 81.3796C84.5111 81.4096 84.461 81.4396 84.401 81.4696C84.2909 81.5297 84.1809 81.5997 84.0808 81.6598C84.0308 81.6898 83.9807 81.7198 83.9207 81.7598C83.8106 81.8299 83.7105 81.8999 83.6005 81.97C83.5604 82 83.5204 82.02 83.4804 82.05C83.3403 82.1501 83.2002 82.2502 83.0701 82.3502C83.0601 82.3602 83.0401 82.3702 83.0301 82.3802C82.91 82.4703 82.7899 82.5604 82.6799 82.6604C82.6398 82.6904 82.5998 82.7305 82.5598 82.7605C82.4697 82.8305 82.3897 82.9006 82.3096 82.9806C82.2696 83.0207 82.2296 83.0507 82.1895 83.0907C82.1095 83.1608 82.0294 83.2408 81.9494 83.3109C81.9194 83.3409 81.8793 83.3709 81.8493 83.4109C81.7392 83.511 81.6292 83.6211 81.5291 83.7211L78.0968 87.1534C78.0268 87.2234 77.9767 87.3235 77.9467 87.4136C77.9267 87.5136 77.9267 87.6137 77.9567 87.7138C77.9567 87.7138 77.9867 87.7938 78.0168 87.9339C78.0468 88.074 78.0768 88.2641 78.1068 88.5043C78.1368 88.8145 78.1369 89.1948 78.0768 89.595C78.0468 89.7952 77.9968 90.0053 77.9267 90.2054C77.7866 90.6157 77.5565 91.026 77.1862 91.3962C76.7059 91.8765 76.2456 92.2268 75.8353 92.4869C75.7553 92.537 75.6752 92.587 75.5952 92.627C75.4451 92.7171 75.295 92.7871 75.1649 92.8472C74.7046 93.0573 74.3944 93.1274 74.3243 93.1474C74.3143 93.1474 74.3043 93.1474 74.3043 93.1474C74.1842 93.1674 74.0642 93.2174 73.9841 93.3075L71.8727 95.4189C71.7126 95.579 71.6125 95.7491 71.5525 95.9292C71.4924 96.1093 71.4824 96.3095 71.5025 96.4996C71.6325 97.6904 73.0335 99.0913 73.6539 99.7117C73.7039 99.7617 73.7539 99.8118 73.804 99.8618C73.814 99.8718 73.834 99.8918 73.854 99.9118C73.894 99.9519 73.9441 100.002 73.9941 100.052C74.0141 100.072 74.0341 100.092 74.0541 100.112C74.1042 100.162 74.1542 100.212 74.2142 100.262C74.2343 100.282 74.2543 100.292 74.2743 100.312C74.3443 100.382 74.4244 100.452 74.5044 100.522C74.5144 100.532 74.5345 100.542 74.5445 100.552C74.6145 100.612 74.6746 100.672 74.7446 100.732C74.7746 100.752 74.7946 100.772 74.8247 100.802C74.8847 100.852 74.9447 100.903 75.0048 100.953C75.0348 100.973 75.0648 100.993 75.0948 101.023C75.1649 101.073 75.2349 101.133 75.305 101.183C75.325 101.193 75.345 101.213 75.365 101.223C75.4551 101.283 75.5451 101.343 75.6452 101.403C75.6652 101.413 75.6952 101.433 75.7152 101.443C75.7853 101.483 75.8553 101.523 75.9254 101.563C75.9554 101.583 75.9854 101.593 76.0154 101.613C76.0855 101.643 76.1455 101.673 76.2156 101.703C76.2456 101.713 76.2756 101.733 76.3056 101.743C76.3957 101.773 76.4757 101.803 76.5658 101.833C76.5758 101.833 76.5758 101.843 76.5858 101.843C76.6759 101.863 76.7659 101.883 76.856 101.893C76.886 101.893 76.906 101.893 76.9361 101.903C76.9761 101.903 77.0161 101.913 77.0561 101.913C77.0761 101.913 77.0962 101.913 77.1162 101.903C77.1462 101.903 77.1862 101.893 77.2162 101.893C77.2763 101.883 77.3263 101.873 77.3764 101.863C77.4064 101.853 77.4464 101.843 77.4764 101.833C77.5365 101.813 77.5865 101.783 77.6465 101.753C77.6765 101.743 77.6966 101.723 77.7266 101.713C77.8066 101.663 77.8867 101.603 77.9567 101.533L80.0681 99.4215C80.0881 99.4015 80.1082 99.3615 80.1282 99.3315C80.1782 99.2614 80.2182 99.1814 80.2282 99.1013C80.2282 99.1013 80.2382 99.0112 80.2883 98.8612C80.3483 98.661 80.4684 98.3308 80.6885 97.9305C80.7486 97.8205 80.8186 97.7004 80.8987 97.5703C80.9987 97.4102 81.1188 97.2401 81.2489 97.06C81.449 96.7898 81.6992 96.5096 81.9794 96.2194C82.0594 96.1393 82.1495 96.0593 82.2396 95.9893C82.2696 95.9692 82.2896 95.9492 82.3196 95.9292C82.3897 95.8792 82.4597 95.8291 82.5298 95.7891C82.5498 95.7791 82.5798 95.7591 82.5998 95.7491C82.6899 95.6991 82.7899 95.649 82.88 95.609C82.9 95.599 82.91 95.599 82.93 95.589C83.0101 95.559 83.0901 95.5189 83.1702 95.4989C83.2002 95.4889 83.2302 95.4789 83.2602 95.4689C83.3403 95.4489 83.4103 95.4189 83.4904 95.4089C83.5104 95.4089 83.5304 95.3989 83.5504 95.3989C83.6405 95.3788 83.7406 95.3588 83.8306 95.3488C83.8506 95.3488 83.8806 95.3388 83.9007 95.3388C83.9707 95.3288 84.0408 95.3188 84.1108 95.3188C84.1408 95.3188 84.1608 95.3188 84.1909 95.3088C84.2709 95.3088 84.351 95.2988 84.421 95.2988C84.431 95.2988 84.441 95.2988 84.451 95.2988C84.5311 95.2988 84.6111 95.2988 84.6812 95.3088C84.7012 95.3088 84.7212 95.3088 84.7412 95.3088C84.7913 95.3088 84.8413 95.3188 84.8913 95.3188C84.9113 95.3188 84.9413 95.3188 84.9614 95.3288C85.0114 95.3288 85.0514 95.3388 85.0915 95.3488C85.1115 95.3488 85.1315 95.3488 85.1515 95.3588C85.2115 95.3688 85.2616 95.3789 85.3116 95.3889C85.3316 95.3989 85.3516 95.4089 85.3816 95.4189C85.4017 95.4289 85.4317 95.4389 85.4517 95.4489C85.5418 95.4889 85.6218 95.5289 85.7019 95.569L88.2235 97.9305L96.9893 106.696L100.121 109.828C99.7612 110.189 99.4009 110.559 99.0407 110.909C97.5497 112.4 96.1388 113.821 94.908 115.062C94.5377 115.432 94.1875 115.792 93.8473 116.133C93.507 116.473 93.1968 116.793 92.8966 117.093C92.7966 117.193 92.6965 117.293 92.6064 117.383C91.7559 118.244 91.1154 118.894 90.7352 119.285C88.0234 122.087 86.4423 122.016 84.7612 121.946C84.1608 121.916 83.5504 121.906 82.89 122.006C81.5791 121.406 80.2783 120.766 79.0274 120.055L77.1662 124.938L72.1029 127.12L76.806 124.458L79.0074 120.055C77.4264 119.155 75.8954 118.154 74.4344 117.053C73.894 116.653 73.3637 116.233 72.8433 115.802C70.872 114.161 69.0408 112.33 67.3997 110.289C67.0995 109.918 66.8093 109.538 66.5292 109.158C66.4991 109.118 66.4791 109.068 66.4491 109.028L66.4391 109.038L62.2463 112.79L56.3324 112.38L62.1463 112.15L66.4391 109.018C65.3984 107.607 64.4378 106.116 63.5872 104.515L59.0142 107.277L53.2804 105.776L59.0342 106.636L63.5672 104.485C62.6866 102.844 61.9061 101.103 61.2457 99.2614L56.2824 101.253L50.8588 98.8511L56.3924 100.622L61.2257 99.2214C60.8454 98.1607 60.5052 97.06 60.205 95.9192C59.2043 92.1567 58.6439 87.994 58.6339 83.4309C58.6439 83.1508 58.654 82.8706 58.664 82.5904H58.6439L53.1303 82.2301L49.2877 77.7172L53.5105 81.7098L58.6439 82.5704H58.664C58.764 80.5891 58.9742 78.5877 59.2944 76.6164L59.1843 76.5964L53.7907 75.7959L50.3284 70.9827L54.211 75.3156L59.1843 76.5764L59.2944 76.6064C59.6146 74.6751 60.0349 72.7839 60.5552 70.9927L60.5352 70.9827L55.2717 69.5517L52.3998 64.3583L55.742 69.1115L60.5452 70.9527L60.5652 70.9627C60.6753 70.5924 60.7854 70.2322 60.9054 69.872C61.3757 68.431 61.9061 67.0501 62.4965 65.7893L57.3331 63.5878L55.2017 58.0541L57.8634 63.2276L62.4965 65.7793C62.8067 65.1188 63.1369 64.4884 63.4871 63.888C63.6673 63.5778 63.8574 63.2676 64.0475 62.9674C64.5178 62.2069 64.9881 61.4564 65.4885 60.7259L65.4284 60.6959L60.5252 58.2242L58.754 52.5705L61.0756 57.894L65.4384 60.6759L65.4885 60.7059C66.6092 59.0648 67.8 57.5038 68.9708 56.0928L68.9408 56.0728L64.2577 53.0808L63.0669 47.277L64.838 52.8107L68.9508 56.0628L68.9808 56.0928C69.291 55.7226 69.5912 55.3624 69.8914 55.0121C73.834 50.7593 78.6672 47.217 84.1508 44.6052C84.8813 44.255 85.6318 43.9248 86.3923 43.6046C85.5117 42.9041 84.5911 41.9735 84.5511 41.9335L81.8893 38.7814L85.5217 40.7427C85.992 41.0028 87.423 41.6633 88.3436 41.6633H88.4237C90.6251 41.5632 91.3756 41.0129 92.2362 40.3824C92.4363 40.2323 92.6364 40.0922 92.8566 39.9522C93.2569 39.692 93.8673 39.1616 94.5677 38.5512C95.4883 37.7507 96.6291 36.75 97.9299 35.7994C99.2908 34.8087 101.783 33.5479 102.603 33.1376L102.673 33.0976C103.494 32.6873 103.644 32.4372 103.674 32.3471C103.684 32.3071 103.674 32.237 103.624 32.157C103.584 32.0769 103.504 31.9268 103.133 31.9268C102.903 31.9268 102.493 31.9869 101.853 32.2871C101.662 32.3771 101.462 32.4672 101.262 32.5472C100.572 32.8575 99.8612 33.1677 99.0607 33.668C98.3802 34.0883 97.0494 34.9488 95.7485 35.9995C95.1581 36.4799 94.6178 36.9502 94.0974 37.4105C92.7966 38.5512 91.6758 39.5419 90.525 39.9221C89.9246 40.1223 89.3242 40.2223 88.6738 40.2223C87.9734 40.2223 87.2429 40.1123 86.3023 39.8621C83.3303 39.0916 81.5291 35.6393 81.449 35.4992L79.9981 32.6673L82.5998 34.4985C82.6198 34.5085 84.6411 35.9295 86.4223 36.1997C87.7132 36.3998 88.0834 36.3798 89.2242 36.0195C90.5451 35.5993 91.6858 34.4685 93.0167 33.1677C93.9573 32.2471 94.918 31.2864 96.0887 30.4459C98.0701 29.0149 100.121 28.1543 102.363 27.8041C102.903 27.714 103.013 27.594 103.023 27.574C103.043 27.5439 103.053 27.4539 103.033 27.3138C102.993 27.0636 102.463 26.9035 101.712 26.9035C100.912 26.9035 99.8913 27.0936 98.9106 27.4139C97.4797 27.8942 96.0387 29.085 94.4977 30.3358C93.9873 30.7561 93.467 31.1863 92.9366 31.5966C92.5164 31.9168 92.1061 32.2871 91.6958 32.6373C90.5951 33.6079 89.5444 34.5286 88.4137 34.6887C88.0134 34.7487 87.6431 34.7787 87.3029 34.7787C86.2622 34.7787 85.2616 34.5186 83.7306 33.8481C81.5591 32.8975 79.848 30.3658 79.7679 30.2557L77.9567 27.5639L80.7986 29.135C80.8186 29.145 82.7899 30.2257 84.7212 30.4058C86.0521 30.5259 86.9827 30.1256 87.483 29.8054C88.4137 29.215 89.3143 28.5646 90.2449 27.8141C90.9854 27.2137 91.6458 26.6433 92.2762 26.093C93.5671 24.9622 94.6878 23.9916 95.9486 23.3612C97.99 22.3405 99.9113 21.8302 101.833 21.8201C103.364 21.8201 104.604 22.4706 105.505 22.9509C105.775 23.091 106.125 23.2811 106.346 23.3612C106.406 22.8909 105.795 22.3305 105.155 21.9803C104.534 21.63 102.893 20.9496 101.122 20.8495C99.8412 20.7795 98.3903 21.0797 97.1795 21.65C96.3889 22.0203 95.7185 22.5006 94.6778 23.2511C93.7072 23.9516 92.8066 24.7121 92.0861 25.3125C91.7959 25.5526 91.5357 25.7728 91.3156 25.9529C91.2255 26.0229 91.1054 26.133 90.9553 26.2731C90.2349 26.9335 88.884 28.1744 87.2129 28.9449C86.6225 29.215 85.4717 29.5052 84.331 29.5052C83.6005 29.5052 82.97 29.3852 82.4597 29.155C80.3483 28.1844 78.1969 25.1924 78.1068 25.0623L76.4657 22.7708L79.0475 23.8915C79.838 24.2417 82.1495 25.1423 83.2903 25.1924C84.3009 25.2324 84.9614 25.0223 85.6018 24.7721H85.6118C85.2916 23.8315 84.8613 22.8108 84.331 22.2004C83.1702 20.8795 79.5878 19.6387 79.5878 19.6387C79.5878 19.6387 80.7186 20.7394 80.9687 21.5099C81.2289 22.2805 81.0988 23.0309 81.0988 23.0309C81.0988 23.0309 80.5384 22.2104 79.848 21.7101C78.427 20.6994 75.7253 19.5486 73.6839 19.3285C72.6032 19.2184 70.2316 19.8288 70.2316 19.8288C70.2316 19.8288 72.4331 20.5093 73.7639 21.4499C74.9647 22.2905 75.285 23.6714 75.285 23.6714C75.285 23.6714 73.6539 23.111 72.9334 23.2411C72.2129 23.3712 71.0321 24.0716 71.0321 24.0716C71.0321 24.0716 73.2636 24.1817 74.5945 25.9529C74.9447 26.4132 75.2449 27.0736 75.4951 27.7641C75.1148 27.2738 74.7046 26.8335 74.2943 26.5433C72.8533 25.5426 69.0809 25.1724 69.0809 25.1724C69.0809 25.1724 70.4418 25.9629 70.872 26.6433C71.3023 27.3238 71.3724 28.0643 71.3724 28.0643C71.3724 28.0643 70.6319 27.4138 69.8414 27.0936C68.2203 26.4432 65.3284 25.9629 63.297 26.2131C62.2263 26.3431 60.0649 27.4639 60.0649 27.4639C60.0649 27.4639 62.3664 27.624 63.8874 28.2144C65.2483 28.7447 65.8987 29.9856 65.8987 29.9856C65.8987 29.9856 64.1876 29.8154 63.5172 30.1056C62.8467 30.3958 61.8661 31.3264 61.8661 31.3264C61.8661 31.3264 64.0575 30.9362 65.7687 32.3071C66.6292 32.9975 67.3297 34.1783 67.76 35.0089C67.7199 35.0389 67.6899 35.0589 67.6499 35.0889C66.8894 34.2484 65.7286 33.1176 64.728 32.6873C63.0769 31.9869 59.1843 32.3371 59.1843 32.3371C59.1843 32.3371 60.7153 32.8575 61.2857 33.4378C61.8561 34.0182 62.0662 34.7287 62.0662 34.7287C62.0662 34.7287 61.1956 34.2284 60.3251 34.0683C58.5639 33.748 55.5319 33.8181 53.5306 34.4485C52.4699 34.7787 50.5186 36.2897 50.5186 36.2897C50.5186 36.2897 52.8701 36.0095 54.5312 36.2897C56.0122 36.5499 56.9128 37.6406 56.9128 37.6406C56.9128 37.6406 55.1416 37.8007 54.5212 38.211C53.9008 38.6213 53.1003 39.722 53.1003 39.722C53.1003 39.722 55.2317 38.9215 57.243 39.9421C58.1036 40.3824 58.9141 41.183 59.5045 41.8734C59.4745 41.9034 59.4545 41.9235 59.4345 41.9535C58.5639 41.273 57.3831 40.4525 56.4325 40.2123C54.7213 39.782 51.0089 40.7527 51.0089 40.7527C51.0089 40.7527 52.5799 41.0229 53.2204 41.5032C53.8708 41.9835 54.191 42.6639 54.191 42.6639C54.191 42.6639 53.2604 42.3037 52.3998 42.2837C50.6386 42.2437 47.7267 42.804 45.8855 43.7547C44.9148 44.255 43.2638 46.0662 43.2638 46.0662C43.2638 46.0662 45.4952 45.4058 47.1463 45.4258C48.6173 45.4458 49.678 46.3864 49.678 46.3864C49.678 46.3864 47.9969 46.8267 47.4565 47.337C46.9262 47.8474 46.3258 49.0582 46.3258 49.0582C46.3258 49.0582 48.2571 47.9174 50.3685 48.6079C51.9795 49.1382 52.5399 50.6993 52.63 50.9794C51.7594 50.6092 49.5879 49.7486 48.227 49.8487C46.4759 49.9688 43.3038 52.0402 43.3038 52.0402C43.3038 52.0402 44.8648 51.81 45.6253 52.0702C46.3858 52.3303 46.8962 52.8607 46.8962 52.8607C46.8962 52.8607 45.9155 52.8107 45.095 53.0608C43.4239 53.5712 40.8622 55.0021 39.4412 56.4731C38.6907 57.2436 37.7001 59.4651 37.7001 59.4651C37.7001 59.4651 39.5913 58.1442 41.1424 57.6639C42.5333 57.2236 43.8241 57.784 43.8241 57.784C43.8241 57.784 42.3832 58.7246 42.0329 59.365C41.6927 60.0054 41.5126 61.3463 41.5126 61.3463C41.5126 61.3463 43.1737 59.6752 45.3752 59.6752C46.656 59.6752 47.5466 60.4357 47.9769 60.896C47.9669 60.916 47.9569 60.936 47.9569 60.9561C46.9062 60.7259 45.095 60.4057 43.9542 60.6659C42.2531 61.0561 39.3812 63.5178 39.3812 63.5178C39.3812 63.5178 40.8822 63.0574 41.6527 63.1775C42.4232 63.3076 42.9836 63.7379 42.9836 63.7379C42.9836 63.7379 42.0129 63.838 41.2424 64.2082C39.6714 64.9487 37.3198 66.7099 36.079 68.3309C35.4286 69.1815 34.7081 71.453 34.7081 71.453C34.7081 71.453 36.4092 69.912 37.8802 69.2015C39.1911 68.5711 40.5119 68.9013 40.5119 68.9013C40.5119 68.9013 39.2011 70.0221 38.9409 70.6825C38.6807 71.3429 38.6507 72.6438 38.6507 72.6438C38.6507 72.6438 39.9015 70.8226 42.053 70.4824C43.8541 70.2022 45.0549 71.5331 45.0549 71.5331L45.075 71.513C45.075 71.5331 45.065 71.5631 45.065 71.5931C43.9842 71.433 42.5633 71.3029 41.6227 71.5631C39.9316 72.0334 37.2398 74.6951 37.2398 74.6951C37.2398 74.6951 38.7208 74.1548 39.5113 74.2549C40.3118 74.3549 40.9222 74.7752 40.9222 74.7752C40.9222 74.7752 39.9516 74.9253 39.2011 75.3356C37.6701 76.1661 35.4386 78.0774 34.3379 79.8085C33.7575 80.7191 33.2371 83.0907 33.2371 83.0907C33.2371 83.0907 34.8282 81.4196 36.2491 80.6291C37.52 79.9186 38.9009 80.2188 38.9009 80.2188C38.9009 80.2188 37.6701 81.4296 37.4699 82.1301C37.2598 82.8305 37.3498 84.1714 37.3498 84.1714C37.3498 84.1714 38.4506 82.2401 40.602 81.7999C42.0029 81.5097 43.1137 82.2502 43.5539 82.6004C42.4832 82.6704 41.1624 82.8305 40.3418 83.2608C38.7808 84.0614 36.6794 87.2134 36.6794 87.2134C36.6794 87.2134 38.0203 86.3929 38.8208 86.3229C39.6213 86.2628 40.3018 86.553 40.3018 86.553C40.3018 86.553 39.3812 86.8932 38.7308 87.4436C37.3999 88.5643 35.6087 90.8959 34.8682 92.8071C34.4779 93.8178 34.4479 96.2494 34.4479 96.2494C34.4479 96.2494 35.6687 94.2981 36.8995 93.2274C38.0003 92.2768 39.4112 92.2868 39.4112 92.2868C39.4112 92.2868 38.4506 93.7178 38.3905 94.4482C38.3305 95.1787 38.6907 96.4796 38.6907 96.4796C38.6907 96.4796 39.3712 94.3582 41.3925 93.4976C42.6133 92.9773 43.7841 93.3675 44.3345 93.6277C44.3445 93.6877 44.3545 93.7578 44.3645 93.8178C43.5439 93.9579 42.7134 94.168 42.133 94.4883C40.612 95.3588 38.6507 98.601 38.6507 98.601C38.6507 98.601 39.9516 97.7204 40.7521 97.6203C41.5526 97.5203 42.2431 97.7804 42.2431 97.7804C42.2431 97.7804 41.3325 98.1607 40.7121 98.7411C39.4312 99.9219 37.7501 102.323 37.0997 104.275C36.7595 105.295 36.8395 107.727 36.8395 107.727C36.8395 107.727 37.9703 105.716 39.161 104.605C40.2217 103.604 41.6227 103.554 41.6227 103.554C41.6227 103.554 40.7321 105.025 40.7021 105.756C40.672 106.486 41.0923 107.767 41.0923 107.767C41.0923 107.767 41.6827 105.626 43.664 104.665C44.6547 104.185 45.6253 104.335 46.2557 104.535C45.3451 104.925 44.3345 105.446 43.7641 106.036C42.5433 107.297 41.5526 110.949 41.5526 110.949C41.5526 110.949 42.5633 109.738 43.2938 109.428C44.0343 109.108 44.7748 109.168 44.7748 109.168C44.7748 109.168 44.0043 109.788 43.564 110.519C42.6634 112.01 41.7027 114.782 41.6127 116.833C41.5626 117.914 42.3131 120.225 42.3131 120.225C42.3131 120.225 42.8435 117.984 43.684 116.583C44.4245 115.332 45.7654 114.892 45.7654 114.892C45.7654 114.892 45.3151 116.553 45.4852 117.263C45.6553 117.974 46.4158 119.085 46.4158 119.085C46.4158 119.085 46.3858 116.863 48.0269 115.392C48.5373 114.932 49.1176 114.712 49.638 114.622C49.0176 115.182 48.4072 115.822 48.097 116.423C47.2864 117.974 47.3965 121.766 47.3965 121.766C47.3965 121.766 48.0069 120.315 48.6273 119.805C49.2377 119.285 49.9682 119.135 49.9682 119.135C49.9682 119.135 49.4078 119.945 49.1977 120.776C48.7574 122.467 48.6473 125.399 49.1577 127.38C49.4278 128.431 50.8088 130.422 50.8088 130.422C50.8088 130.422 50.6687 128.121 51.0689 126.539C51.4192 125.119 52.5699 124.318 52.5699 124.318C52.5699 124.318 52.62 126.039 52.9902 126.67C53.3604 127.3 54.4111 128.151 54.4111 128.151C54.4111 128.151 53.7407 126.029 54.8915 124.148C55.3117 123.457 55.9121 123.057 56.4525 122.827C56.3924 122.917 56.3424 123.007 56.2924 123.097C55.4818 124.648 55.5919 128.441 55.5919 128.441C55.5919 128.441 56.2023 126.99 56.8227 126.479C57.4331 125.959 58.1636 125.809 58.1636 125.809C58.1636 125.809 57.6033 126.62 57.3931 127.45C56.9628 129.141 56.8427 132.073 57.3531 134.054C57.6233 135.105 59.0042 137.096 59.0042 137.096C59.0042 137.096 58.8641 134.795 59.2644 133.214C59.6146 131.793 60.7654 130.992 60.7654 130.992C60.7654 130.992 60.8154 132.714 61.1856 133.344C61.5559 133.974 62.6066 134.825 62.6066 134.825C62.6066 134.825 61.9361 132.704 63.0869 130.822C63.1469 130.722 63.217 130.622 63.287 130.532C63.247 130.672 63.217 130.802 63.1869 130.932C62.8968 132.664 64.1676 136.236 64.1676 136.236C64.1676 136.236 64.3077 134.675 64.738 133.994C65.1683 133.314 65.8087 132.944 65.8087 132.944C65.8087 132.944 65.5285 133.894 65.5785 134.745C65.6786 136.486 66.4691 139.318 67.5598 141.049C68.1402 141.96 70.0615 143.441 70.0615 143.441C70.0615 143.441 69.2309 141.299 69.1109 139.668C69.0108 138.217 69.8614 137.096 69.8614 137.096C69.8614 137.096 70.4418 138.718 70.9821 139.208C71.5225 139.688 72.7833 140.179 72.7833 140.179C72.7833 140.179 71.4924 138.367 72.0128 136.226C72.1829 135.525 72.5532 135.005 72.9534 134.625C72.9334 134.715 72.9034 134.815 72.8934 134.905C72.6032 136.636 73.874 140.209 73.874 140.209C73.874 140.209 74.0141 138.647 74.4444 137.967C74.8747 137.287 75.5151 136.916 75.5151 136.916C75.5151 136.916 75.2349 137.867 75.285 138.718C75.385 140.459 76.1755 143.291 77.2663 145.022C77.8466 145.932 79.7679 147.413 79.7679 147.413C79.7679 147.413 78.9374 145.272 78.8173 143.641C78.7172 142.19 79.5678 141.069 79.5678 141.069C79.5678 141.069 80.1482 142.69 80.6885 143.181C81.2289 143.661 82.4897 144.151 82.4897 144.151C82.4897 144.151 81.1989 142.34 81.7192 140.199C81.7893 139.898 81.9093 139.628 82.0394 139.388C82.2496 141.189 83.9007 144.101 83.9007 144.101C83.9007 144.101 83.7706 142.53 84.0708 141.79C84.371 141.049 84.9414 140.569 84.9414 140.569C84.9414 140.569 84.8313 141.549 85.0314 142.38C85.4417 144.071 86.7125 146.723 88.0934 148.234C88.8239 149.034 90.9753 150.145 90.9753 150.145C90.9753 150.145 89.7746 148.174 89.3843 146.593C89.0341 145.182 89.6745 143.931 89.6745 143.931C89.6745 143.931 90.5251 145.432 91.1455 145.812C91.7659 146.192 93.0868 146.453 93.0868 146.453C93.0868 146.453 91.5057 144.892 91.6358 142.69C91.6758 142.11 91.8559 141.619 92.1061 141.209C92.4463 143.02 93.9173 145.612 93.9173 145.612C93.9173 145.612 93.7872 144.041 94.0874 143.301C94.3876 142.56 94.958 142.08 94.958 142.08C94.958 142.08 94.8479 143.06 95.048 143.891C95.4583 145.582 96.7292 148.234 98.1101 149.745C98.8406 150.545 100.992 151.656 100.992 151.656C100.992 151.656 99.7912 149.685 99.4009 148.104C99.0507 146.693 99.6911 145.442 99.6911 145.442C99.6911 145.442 100.542 146.943 101.162 147.323C101.783 147.703 103.103 147.964 103.103 147.964C103.103 147.964 101.522 146.403 101.652 144.201C101.702 143.461 101.993 142.87 102.323 142.42C102.333 142.47 102.343 142.52 102.353 142.57C102.773 144.271 105.355 147.043 105.355 147.043C105.355 147.043 104.865 145.552 104.985 144.762C105.105 143.971 105.555 143.371 105.555 143.371C105.555 143.371 105.675 144.351 106.055 145.112C106.846 146.673 108.687 148.954 110.378 150.105C111.269 150.715 113.63 151.306 113.63 151.306C113.63 151.306 112.009 149.665 111.259 148.214C110.588 146.923 110.929 145.552 110.929 145.552C110.929 145.552 112.099 146.813 112.79 147.043C113.48 147.273 114.831 147.223 114.831 147.223C114.831 147.223 112.93 146.062 112.56 143.901C112.41 143.01 112.66 142.25 112.95 141.7C113.02 141.93 113.1 142.14 113.2 142.33C113.991 143.891 117.133 146.012 117.133 146.012C117.133 146.012 116.322 144.671 116.262 143.871C116.202 143.07 116.502 142.39 116.502 142.39C116.502 142.39 116.842 143.321 117.383 143.971C118.504 145.312 120.815 147.123 122.716 147.864C123.727 148.254 126.149 148.304 126.149 148.304C126.149 148.304 124.207 147.073 123.147 145.832C122.206 144.722 122.226 143.321 122.226 143.321C122.226 143.321 123.657 144.291 124.377 144.351C125.098 144.421 126.409 144.071 126.409 144.071C126.409 144.071 124.297 143.371 123.447 141.349C123.107 140.539 123.167 139.748 123.327 139.148C123.707 139.938 124.187 140.749 124.708 141.229C125.989 142.42 129.671 143.341 129.671 143.341C129.671 143.341 128.44 142.36 128.11 141.629C127.78 140.899 127.82 140.159 127.82 140.159C127.82 140.159 128.46 140.909 129.191 141.339C130.702 142.21 133.493 143.11 135.545 143.15C136.626 143.17 138.917 142.38 138.917 142.38C138.917 142.38 136.666 141.89 135.245 141.089C133.974 140.369 133.514 139.048 133.514 139.048C133.514 139.048 135.185 139.468 135.885 139.278C136.586 139.088 137.686 138.307 137.686 138.307C137.686 138.307 135.465 138.377 133.964 136.766C133.313 136.066 133.113 135.235 133.083 134.595C133.554 135.265 134.124 135.956 134.684 136.316C135.965 137.147 139.247 137.377 139.247 137.377C139.247 137.377 138.047 136.716 137.656 136.146C137.266 135.565 137.186 134.925 137.186 134.925C137.186 134.925 137.846 135.475 138.537 135.726C139.958 136.246 142.489 136.596 144.251 136.326C145.181 136.186 147.022 135.155 147.022 135.155C147.022 135.155 145.021 135.075 143.68 134.605C142.489 134.185 141.889 133.114 141.889 133.114C141.889 133.114 143.38 133.224 143.96 132.954C144.531 132.684 145.361 131.853 145.361 131.853C145.361 131.853 143.47 132.253 141.939 131.092C141.028 130.402 140.818 129.361 140.768 128.831C141.429 129.451 142.279 130.142 143.01 130.402C144.441 130.922 147.693 130.392 147.693 130.392C147.693 130.392 146.372 130.032 145.862 129.561C145.341 129.091 145.121 128.481 145.121 128.481C145.121 128.481 145.892 128.871 146.622 128.951C148.133 129.131 150.675 128.891 152.326 128.231C153.197 127.88 154.758 126.459 154.758 126.459C154.758 126.459 152.796 126.84 151.385 126.69C150.125 126.549 149.294 125.649 149.294 125.649C149.294 125.649 150.775 125.409 151.275 125.018C151.776 124.628 152.386 123.628 152.386 123.628C152.386 123.628 150.635 124.448 148.884 123.678C147.973 123.277 147.513 122.497 147.303 121.956C147.873 122.367 148.664 122.857 149.284 122.977C150.375 123.187 152.656 122.457 152.656 122.457C152.656 122.457 151.666 122.337 151.245 122.057C150.825 121.776 150.595 121.356 150.595 121.356C150.595 121.356 151.185 121.546 151.726 121.536C152.826 121.506 154.638 121.056 155.758 120.385C156.349 120.035 157.319 118.844 157.319 118.844C157.319 118.844 155.948 119.335 154.908 119.375C153.987 119.415 153.287 118.854 153.287 118.854C153.287 118.854 154.327 118.524 154.648 118.184C154.968 117.844 155.298 117.063 155.298 117.063C155.298 117.063 154.127 117.844 152.776 117.483C151.826 117.223 151.405 116.373 151.295 116.113C151.676 116.313 152.066 116.473 152.406 116.533C153.507 116.713 155.768 115.892 155.768 115.892C155.768 115.892 154.778 115.802 154.337 115.542C153.907 115.272 153.667 114.862 153.667 114.862C153.667 114.862 154.267 115.032 154.808 115.002C155.908 114.932 157.7 114.421 158.8 113.721C159.371 113.351 160.311 112.12 160.311 112.12C160.311 112.12 158.95 112.66 157.92 112.73C156.999 112.8 156.289 112.26 156.289 112.26C156.289 112.26 157.319 111.89 157.619 111.54C157.92 111.189 158.23 110.389 158.23 110.389C158.23 110.389 157.079 111.209 155.728 110.889C155.498 110.839 155.298 110.739 155.118 110.639C155.458 110.679 155.788 110.689 156.058 110.629C156.949 110.439 158.44 109.158 158.44 109.158C158.44 109.158 157.66 109.388 157.249 109.308C156.839 109.228 156.539 108.988 156.539 108.988C156.539 108.988 157.049 108.948 157.449 108.758C158.27 108.377 159.491 107.467 160.121 106.606C160.451 106.156 160.802 104.945 160.802 104.945C160.802 104.945 159.921 105.756 159.15 106.116C158.47 106.436 157.77 106.236 157.77 106.236C157.77 106.236 158.45 105.656 158.58 105.295C158.71 104.945 158.71 104.245 158.71 104.245C158.71 104.245 158.31 104.835 157.599 105.165C158.47 103.734 161.432 102.073 161.942 101.093L165.355 95.9492C166.485 94.098 167.246 92.0466 167.626 89.8852C167.626 89.595 167.596 89.3549 167.516 89.1347ZM89.0541 83.581C88.4637 83.8512 87.9433 84.1714 87.6832 84.5617C87.443 84.9219 87.3129 85.3222 87.2629 85.7525C87.2229 86.0327 87.2229 86.3229 87.2329 86.623C87.2529 87.0633 87.3129 87.5136 87.353 87.9439C87.5331 89.565 87.5631 91.2261 87.403 92.8672C86.8226 92.8172 86.0621 92.6971 85.3116 92.4769C84.5411 92.2568 83.8006 91.9466 83.2602 91.6564C82.9901 91.5163 82.7699 91.3862 82.6198 91.2961C82.5798 91.2761 82.5498 91.2561 82.5197 91.2361C82.4297 91.1861 82.3797 91.1561 82.3797 91.1561C82.3797 91.1561 82.4597 91.2161 82.5998 91.3362C82.6298 91.3662 82.6698 91.3962 82.7199 91.4262C82.85 91.5263 83.0101 91.6464 83.2002 91.7765C83.3303 91.8665 83.4604 91.9566 83.6105 92.0466C84.0608 92.3268 84.6011 92.627 85.1715 92.8772C85.5417 93.0373 85.932 93.1774 86.2922 93.2975C86.6625 93.4175 87.0127 93.5076 87.3129 93.5676C87.3129 93.5877 87.3129 93.6077 87.3029 93.6277C87.2929 93.6277 87.2829 93.6277 87.2729 93.6277C87.0828 93.5977 86.8326 93.5676 86.5424 93.5176C86.4423 93.4976 86.3423 93.4876 86.2422 93.4576C86.0321 93.4175 85.8019 93.3675 85.5618 93.3175C85.4417 93.2875 85.3216 93.2574 85.1915 93.2274C84.9414 93.1574 84.6812 93.0873 84.421 92.9973C84.2909 92.9572 84.1508 92.9072 84.0207 92.8572C83.7506 92.7571 83.4904 92.647 83.2202 92.517C82.1595 92.0366 81.1889 91.3162 80.5284 90.7057C80.2783 90.4756 80.0681 90.2555 79.908 90.0853C79.858 90.0253 79.808 89.9753 79.7579 89.9152C79.5778 89.7151 79.4777 89.595 79.4777 89.595C79.4777 89.595 79.5478 89.7351 79.6679 89.9753C79.7879 90.2254 79.9781 90.5556 80.2182 90.9559C80.3883 91.2161 80.5885 91.5063 80.8186 91.8065C81.1288 92.2067 81.4891 92.617 81.8993 93.0073C81.9994 93.1073 82.1095 93.1974 82.2095 93.2975C82.1895 93.2875 82.1595 93.2674 82.1395 93.2574C81.5991 92.9272 81.0988 92.527 80.7486 92.1967C80.5284 91.9966 80.3583 91.8165 80.2683 91.7164C80.2482 91.6964 80.2382 91.6764 80.2182 91.6664C80.1882 91.6364 80.1782 91.6264 80.1782 91.6264C80.1782 91.6264 80.2783 91.7765 80.4484 92.0166C80.4784 92.0566 80.5084 92.0967 80.5384 92.1467C80.5685 92.1867 80.6085 92.2368 80.6485 92.2868C80.9487 92.6771 81.389 93.1574 81.8893 93.5977C81.9694 93.6677 82.0394 93.7278 82.1195 93.7878C81.6792 94.4983 81.1589 95.1587 80.5885 95.7691C80.1582 96.2194 79.6879 96.6497 79.1976 97.0299C79.0374 97.16 78.8673 97.2801 78.6872 97.4002L75.4251 94.8685L77.8567 98.0006C77.7366 98.4709 77.4964 98.9012 77.1962 99.2714C77.0061 99.4916 76.796 99.6917 76.5658 99.8618C76.4357 99.9619 76.1555 100.082 75.9454 100.232C75.8553 100.162 75.7553 100.092 75.6552 100.002C75.345 99.7517 74.9948 99.4215 74.5645 99.0012C74.1442 98.581 73.824 98.2307 73.5738 97.9305C72.8233 97.0199 72.7233 96.5896 72.7433 96.4095C72.7433 96.3895 72.7433 96.3695 72.7533 96.3595C72.7633 96.3195 72.7833 96.2995 72.7833 96.2895L74.7746 94.2981C75.275 94.1781 76.6158 93.7478 78.0868 92.2668C78.2869 92.0667 78.4471 91.8665 78.5871 91.6564C78.9474 91.136 79.1475 90.5857 79.2476 90.0553C79.2876 89.8452 79.3176 89.635 79.3276 89.4449C79.3376 89.3448 79.3376 89.2448 79.3376 89.1547C79.3376 88.9646 79.3376 88.7845 79.3276 88.6144C79.3076 88.2741 79.2576 87.994 79.2076 87.7938L82.4197 84.5917C84.9013 82.1101 89.2142 79.3682 98.5404 82.6604C98.2702 82.6704 97.99 82.6804 97.6998 82.6904C94.6878 82.3702 92.5164 82.6404 91.2355 82.9006C90.7752 82.9906 90.1548 83.1608 89.5344 83.3909C89.3943 83.4309 89.2242 83.501 89.0541 83.581ZM79.4377 35.249L79.2776 41.0629L82.0694 45.5158L78.6272 41.1229L79.4377 35.249ZM73.6639 38.3911L73.914 44.195L77.0361 48.4678L73.2736 44.305L73.6639 38.3911ZM69.1009 48.2176L72.8133 52.0001L68.4905 48.4078L68.0302 42.4938L69.1009 48.2176ZM53.5806 88.104L58.8341 88.2641L53.2804 88.6744L48.8475 84.7318L53.5806 88.104ZM49.1176 92.5069L54.5212 94.6484L59.6346 93.5576L54.3611 95.2788L49.1176 92.5069ZM61.3758 118.214L66.6492 116.993L70.1115 113.281L66.8594 117.554L61.3758 118.214ZM71.9427 121.526L66.6693 123.157L71.6325 121.016L74.2142 117.063L71.9427 121.526ZM83.1702 127.44L78.4671 130.332L82.7399 127.02L84.1108 122.867C84.1108 122.867 84.1108 122.867 84.1208 122.867C84.1408 122.867 84.1608 122.867 84.1809 122.867L83.1702 127.44ZM123.157 96.9899C122.836 97.1 122.386 97.3201 121.866 97.6704C121.736 97.7604 121.596 97.8505 121.466 97.9606C121.045 98.2708 120.595 98.661 120.125 99.1213C119.494 99.7317 118.824 100.472 118.073 101.253C117.883 101.453 117.693 101.653 117.503 101.853C116.913 102.464 116.302 103.114 115.652 103.784C114.791 104.685 113.881 105.626 112.93 106.606C112.4 107.147 111.869 107.697 111.329 108.257L111.279 108.307L110.808 108.788L110.438 108.417L110.899 107.947C111.469 107.377 112.029 106.806 112.58 106.256C113.54 105.295 114.471 104.365 115.351 103.484C116.242 102.604 117.073 101.783 117.843 101.013C118.233 100.632 118.604 100.262 118.954 99.9219C119.314 99.5716 119.654 99.2514 119.985 98.9512C120.645 98.3608 121.275 97.9005 121.816 97.5603C121.956 97.4802 122.086 97.4002 122.206 97.3301C122.326 97.2601 122.446 97.2001 122.566 97.15C122.796 97.0499 122.997 96.9799 123.157 96.9299C123.197 96.9199 123.237 96.9099 123.277 96.8999C123.317 96.8898 123.347 96.8798 123.377 96.8798C123.567 96.8398 123.667 96.8398 123.667 96.8398C123.667 96.8398 123.477 96.8798 123.157 96.9899ZM114.721 96.6897C117.483 93.9579 119.294 91.9866 119.294 89.585C119.294 87.5937 119.925 84.962 122.957 83.7411C126.269 82.4103 127.82 82.6404 128.75 83.2508L124.658 85.4823L124.608 85.5223C123.997 86.1127 123.217 87.8238 124.648 90.0853C124.758 90.2555 124.868 90.4156 124.978 90.5657C125.198 90.8659 125.428 91.126 125.668 91.3662C126.139 91.8265 126.609 92.1667 127.039 92.4169C128.02 92.9673 128.8 93.0573 128.86 93.0573L129.001 93.0673L133.413 90.7758C133.273 91.5863 132.713 93.0973 130.712 95.1287C130.552 95.2888 130.391 95.4389 130.231 95.569C129.911 95.8291 129.601 96.0193 129.281 96.1694C129.121 96.2394 128.96 96.3095 128.8 96.3595C128.68 96.3495 128.53 96.3395 128.35 96.3295C128.12 96.3195 127.84 96.2894 127.52 96.2594C127.199 96.2294 126.839 96.1794 126.459 96.1193C126.079 96.0493 125.678 95.9592 125.268 95.8191C124.868 95.679 124.458 95.4989 124.067 95.2588C123.677 95.0186 123.307 94.7284 122.957 94.3882C122.606 94.048 122.266 93.6677 121.936 93.2775L121.696 92.9673C121.626 92.8772 121.556 92.7871 121.496 92.6971C121.436 92.607 121.385 92.5069 121.335 92.4069C121.285 92.3068 121.245 92.2067 121.195 92.0967C121.115 91.8865 121.055 91.6664 121.005 91.4462C120.955 91.2261 120.925 90.9959 120.905 90.7658C120.865 90.3055 120.865 89.8552 120.895 89.4149C120.925 88.9746 120.975 88.5643 121.035 88.1741C121.065 87.9839 121.095 87.7938 121.125 87.6237C121.155 87.4436 121.185 87.2835 121.215 87.1234C121.285 86.8132 121.345 86.533 121.395 86.3028C121.506 85.8525 121.576 85.5924 121.576 85.5924C121.576 85.5924 121.415 85.8125 121.185 86.2228C121.155 86.2728 121.125 86.3329 121.095 86.3829C121.065 86.4429 121.035 86.503 120.995 86.563C120.925 86.6931 120.865 86.8332 120.795 86.9833C120.725 87.1334 120.655 87.2935 120.585 87.4636C120.555 87.5537 120.515 87.6337 120.485 87.7338C120.455 87.8238 120.415 87.9239 120.385 88.014C120.255 88.4042 120.135 88.8345 120.035 89.2948C119.945 89.7651 119.884 90.2755 119.884 90.8058C119.894 91.3462 119.965 91.9165 120.155 92.4769C120.245 92.7571 120.385 93.0373 120.545 93.2975C120.625 93.4276 120.715 93.5576 120.815 93.6777C120.835 93.7077 120.855 93.7278 120.875 93.7578C119.814 95.4989 116.732 99.9919 109.408 107.437L109.087 107.117C109.097 107.107 109.107 107.097 109.117 107.087C109.538 106.646 109.948 106.206 110.348 105.776C110.748 105.335 111.159 104.915 111.539 104.485C112.319 103.634 113.06 102.804 113.75 102.003C114.101 101.603 114.441 101.223 114.761 100.842C115.081 100.462 115.392 100.092 115.682 99.7417C116.272 99.0313 116.802 98.3708 117.263 97.7804C117.493 97.4802 117.713 97.2101 117.913 96.9499C118.113 96.6897 118.283 96.4496 118.454 96.2394C118.774 95.8091 119.024 95.4589 119.184 95.2287C119.354 94.9886 119.434 94.8685 119.434 94.8685C119.434 94.8685 119.334 94.9886 119.144 95.2087C118.954 95.4289 118.674 95.7491 118.323 96.1494C117.973 96.5496 117.533 97.0399 117.043 97.6003C116.792 97.8805 116.522 98.1707 116.242 98.4809C115.952 98.7911 115.672 99.1213 115.351 99.4615C114.721 100.132 114.051 100.862 113.33 101.643C113.15 101.833 112.97 102.033 112.78 102.223C112.219 102.814 111.639 103.414 111.049 104.045C110.258 104.875 109.418 105.716 108.577 106.596C108.567 106.606 108.557 106.616 108.557 106.626L106.646 104.715C110.138 101.253 113.22 98.1807 114.721 96.6897ZM90.385 124.738C90.1248 124.658 89.8546 124.598 89.5944 124.518L89.2942 129.271L85.1015 132.854L88.8039 128.911L89.5344 124.488C88.0134 124.028 86.5224 123.487 85.0414 122.887C85.1915 122.897 85.3416 122.897 85.4917 122.907C85.6618 122.907 85.8319 122.907 86.0021 122.907C86.1221 122.907 86.2322 122.897 86.3523 122.887C87.373 122.797 88.5237 122.457 89.9246 121.376C90.0047 121.316 90.0948 121.246 90.1748 121.176C90.3449 121.036 90.515 120.896 90.6952 120.736C90.7852 120.656 90.8753 120.576 90.9653 120.485C91.1455 120.315 91.3256 120.135 91.5157 119.935C91.6458 119.805 91.7959 119.645 91.976 119.455C92.0961 119.335 92.2362 119.195 92.3763 119.045C92.5964 118.824 92.8366 118.574 93.1068 118.304C94.918 116.473 97.7899 113.581 100.882 110.479L102.783 112.38C102.363 112.8 101.933 113.211 101.522 113.621C101.312 113.821 101.102 114.031 100.902 114.231C100.071 115.022 99.2708 115.802 98.5203 116.543C98.1401 116.903 97.7698 117.263 97.4096 117.604C97.2295 117.774 97.0494 117.944 96.8793 118.104C96.7091 118.274 96.539 118.434 96.3689 118.594C95.7085 119.235 95.0981 119.815 94.5477 120.325C94.4076 120.455 94.2775 120.576 94.1575 120.696C93.7772 121.056 93.437 121.376 93.1468 121.656C92.9567 121.846 92.7765 122.006 92.6264 122.157C92.5564 122.227 92.4863 122.297 92.4163 122.357C92.0961 122.667 91.926 122.827 91.926 122.827C91.926 122.827 92.4063 122.437 93.2369 121.766C93.5471 121.506 93.9073 121.216 94.3176 120.876C94.4476 120.766 94.5877 120.646 94.7378 120.525C95.028 120.285 95.3382 120.035 95.6584 119.765C95.8186 119.625 95.9787 119.485 96.1488 119.345C96.3189 119.205 96.489 119.055 96.6591 118.904C97.3596 118.304 98.1101 117.644 98.9006 116.943C99.6811 116.233 100.512 115.492 101.362 114.702C101.793 114.311 102.213 113.911 102.643 113.501C102.863 113.301 103.083 113.091 103.294 112.88L103.544 113.131C99.9213 116.563 95.5684 120.425 90.385 124.738ZM103.984 114.952L104.664 114.261L105.045 114.642L104.434 115.262C104.264 115.432 104.094 115.612 103.924 115.782C102.913 116.793 101.933 117.794 100.972 118.754C99.0507 120.676 97.2495 122.467 95.6985 123.988C95.0881 124.588 94.5377 125.129 94.0074 125.639C93.9173 125.619 93.8272 125.599 93.7372 125.579C94.2675 125.018 94.8379 124.418 95.4583 123.758C96.9593 122.187 98.7105 120.355 100.602 118.404C101.552 117.433 102.523 116.423 103.524 115.402C103.684 115.252 103.834 115.102 103.984 114.952ZM104.945 136.706L107.756 132.083L107.526 127.02L108.307 132.333L104.945 136.706ZM111.429 136.576L114.081 131.863L113.67 126.81L114.631 132.093L111.429 136.576ZM106.626 127.01C104.905 127.01 103.143 126.93 101.372 126.78L102.013 131.823L98.5704 136.136L101.472 131.573L101.352 126.78C99.3209 126.6 97.2795 126.309 95.2282 125.919L95.6284 130.852L91.996 135.005L95.0981 130.572L95.1881 125.909C95.028 125.879 94.8679 125.839 94.7078 125.799C94.7579 125.749 94.8079 125.699 94.8479 125.649C94.958 125.539 95.0681 125.429 95.1781 125.319C95.3482 125.139 95.5284 124.968 95.7085 124.778C95.9687 124.518 96.2589 124.218 96.5891 123.888C96.9193 123.558 97.2695 123.197 97.6498 122.807C97.8399 122.617 98.04 122.407 98.2402 122.207C99.9513 120.465 102.113 118.284 104.424 115.932C104.534 115.822 104.654 115.702 104.764 115.592L105.365 114.982L116.822 126.439C113.66 126.81 110.268 127.01 106.626 127.01ZM118.654 135.305L120.285 130.732L119.164 126.319L120.815 130.852L118.654 135.305ZM120.335 125.939C119.935 125.589 119.574 125.279 119.294 125.049C118.023 123.998 116.782 122.927 115.692 121.846C115.422 121.576 115.151 121.306 114.891 121.046C114.111 120.255 113.4 119.485 112.78 118.804C112.76 118.784 112.75 118.764 112.73 118.744L109.518 115.652L108.917 115.072L108.477 114.652L107.606 113.811L107.226 113.451L107.066 113.291L106.726 112.97L106.556 112.81L106.336 112.6L106.185 112.45L105.715 111.99L100.261 106.726C100.241 106.706 100.211 106.686 100.191 106.666C100.031 106.536 99.8812 106.416 99.7311 106.296C99.6011 106.196 99.481 106.096 99.3709 106.006C99.3509 105.986 99.3209 105.966 99.3009 105.956C98.7505 105.506 98.3002 105.125 97.99 104.855C97.6798 104.585 97.4997 104.425 97.4997 104.425C97.4997 104.425 97.5297 104.475 97.5997 104.565C97.6598 104.655 97.7598 104.785 97.8899 104.955C98.02 105.115 98.1801 105.315 98.3702 105.536C98.5604 105.756 98.7805 105.996 99.0307 106.256C99.0407 106.266 99.0507 106.276 99.0607 106.286C99.2008 106.426 99.3509 106.576 99.501 106.736L105.495 112.28L105.935 112.69L106.105 112.85L106.346 113.071L106.496 113.211L106.836 113.531L106.996 113.681L107.406 114.061L108.287 114.872L108.727 115.282L109.348 115.852L112.51 118.774C112.56 118.834 112.61 118.894 112.66 118.954C113.45 119.905 114.391 121.006 115.452 122.137C116.512 123.277 117.713 124.418 118.944 125.519C119.154 125.709 119.374 125.899 119.584 126.089C119.054 126.169 118.524 126.249 117.983 126.329L110.428 118.774L108.417 116.763L107.857 116.203L98.4003 106.746C95.8286 104.175 93.437 101.783 91.3356 99.6817C91.3556 99.6717 91.3756 99.6717 91.4056 99.6617C91.4156 99.6517 91.4357 99.6517 91.4457 99.6417C91.4557 99.6417 91.4657 99.6317 91.4757 99.6217C91.5157 99.5916 91.5857 99.5516 91.6758 99.4816C91.7559 99.4315 91.8459 99.3615 91.946 99.2814C91.996 99.2414 92.0461 99.2014 92.1061 99.1513C92.1661 99.1013 92.2162 99.0613 92.2762 99.0012C92.4063 98.8812 92.5564 98.7511 92.7065 98.611C93.0767 99.0112 93.6571 99.4916 94.3776 99.9619C94.7378 100.202 95.1281 100.452 95.5384 100.712C95.9386 100.983 96.3689 101.263 96.7992 101.563C97.2295 101.863 97.6798 102.183 98.1301 102.514C98.5804 102.844 99.0307 103.184 99.471 103.534C99.6911 103.704 99.9213 103.884 100.141 104.055C101.022 104.755 101.883 105.466 102.663 106.136C102.913 106.346 103.153 106.556 103.384 106.756L106.356 109.958L107.006 110.669L107.526 111.229L107.616 111.329L107.756 111.479L107.977 111.72L108.297 112.07L108.507 112.29L108.747 112.55L109.628 113.511L109.948 113.861L110.008 113.921L110.098 114.021L110.648 114.622L114.491 118.774C114.641 118.914 114.781 119.055 114.931 119.195C115.472 119.705 116.022 120.225 116.602 120.746C117.183 121.266 117.763 121.786 118.353 122.317C118.954 122.837 119.554 123.347 120.165 123.838C120.775 124.328 121.395 124.778 122.016 125.199C122.206 125.329 122.386 125.439 122.576 125.559C121.816 125.669 121.075 125.809 120.335 125.939ZM123.297 125.359C122.967 125.139 122.646 124.918 122.306 124.678C121.716 124.248 121.125 123.778 120.525 123.297C120.225 123.057 119.935 122.807 119.634 122.547C119.334 122.297 119.044 122.036 118.754 121.776C118.163 121.256 117.573 120.736 116.993 120.225C116.412 119.715 115.852 119.215 115.301 118.734L110.959 114.241L110.408 113.671L110.318 113.571L110.238 113.481L109.908 113.141L108.987 112.19L108.777 111.97L108.557 111.74L108.227 111.399L107.977 111.149L107.857 111.019L107.776 110.929L107.226 110.359L106.556 109.668L103.644 106.656C103.384 106.406 103.113 106.146 102.833 105.866C101.913 104.975 100.872 103.995 99.8012 103.054C99.3709 102.674 98.9406 102.303 98.5103 101.943C98.0801 101.583 97.6498 101.233 97.2295 100.893C97.0193 100.722 96.8092 100.562 96.6091 100.402C95.9887 99.9319 95.4083 99.5016 94.908 99.1213C94.5777 98.8712 94.2875 98.631 94.0474 98.4109C93.9273 98.3008 93.8172 98.1907 93.7272 98.0906C93.6371 97.9906 93.547 97.9005 93.477 97.8105C93.467 97.8004 93.467 97.7905 93.457 97.7804C93.6071 97.6303 93.7472 97.4802 93.8973 97.3301C94.0474 97.18 94.1975 97.0299 94.3376 96.8798C94.4777 96.7297 94.6178 96.5897 94.7478 96.4396C95.008 96.1494 95.2482 95.8692 95.4283 95.619C95.4783 95.559 95.5184 95.4989 95.5584 95.4389C95.6785 95.2588 95.7685 95.0987 95.8286 94.9786C95.8886 94.8585 95.9286 94.7684 95.9486 94.7284C95.9486 94.7184 95.9586 94.7084 95.9586 94.7084C95.9586 94.7084 95.9586 94.7384 95.9486 94.7885C95.9486 94.8385 95.9386 94.9185 95.9186 95.0086C95.8886 95.1987 95.8085 95.4589 95.6685 95.7591C95.5284 96.0593 95.3282 96.3895 95.0781 96.7097C95.058 96.7297 95.038 96.7497 95.028 96.7698L101.863 103.604L104.784 106.526L109.668 111.409L110.638 112.38L110.969 112.71L111.109 112.85L116.963 118.704L123.527 125.269C123.447 125.319 123.377 125.339 123.297 125.359ZM125.218 133.574L126.229 128.821L124.738 125.129C124.758 125.129 124.778 125.119 124.798 125.119L126.759 128.861L125.218 133.574ZM137.216 127.32L137.406 123.878L135.755 121.096L137.786 123.848L137.216 127.32ZM140.248 128.401C140.268 128.381 140.298 128.371 140.318 128.351C140.338 128.371 140.358 128.391 140.378 128.401H140.248ZM142.91 124.438L142.69 120.996L140.718 118.434L143.07 120.926L142.91 124.438ZM146.572 115.982L144.831 114.481L144.851 114.461L146.852 115.872L147.293 118.634L146.572 115.982ZM149.964 111.139L148.453 110.039L148.463 110.019L150.195 111.019L150.795 113.371L149.964 111.139ZM152.726 105.826L151.165 105.105L151.195 105.055L152.936 105.656L153.967 107.847L152.726 105.826Z" fill="url(#paint7_linear_114_19)"/>
</g>
<g id="Group_15">
<path id="Vector_22" d="M99.8612 0.786224L105.315 9.48198L110.058 16.9569C110.058 16.9569 113.14 21.9703 113.06 21.9502C111.949 21.2298 110.879 20.2391 110.018 19.5987C107.987 18.0777 104.835 16.1764 100.512 16.3465C96.3489 16.5066 93.5571 18.7481 91.976 19.9589C90.9453 20.7494 89.8246 22.1904 88.6938 23.3712C87.7832 24.3218 86.9026 25.1524 86.0721 25.4726C85.3916 25.7327 84.6111 26.0029 83.4404 25.9429C81.9093 25.8728 78.9174 24.572 78.9174 24.572C78.9174 24.572 81.0188 27.5139 82.96 28.4045C84.2109 28.9749 86.2622 28.5646 87.0628 28.1944C89.004 27.3038 90.515 25.6927 91.0054 25.3025C91.7759 24.682 93.0167 23.5713 94.3976 22.5707C95.4583 21.8101 96.1688 21.2998 97.0193 20.8995C98.3102 20.2891 99.9113 19.9389 101.342 20.019C103.374 20.129 105.155 20.9296 105.715 21.2398C106.786 21.8402 107.616 22.7908 107.216 23.7214C106.636 25.0823 104.724 22.5206 102.013 22.5406C99.6211 22.5606 97.6498 23.4112 96.479 24.0016C94.7278 24.8822 93.2068 26.5233 90.9153 28.3645C90.0848 29.0249 89.1642 29.7154 88.0834 30.3958C87.443 30.8061 86.3423 31.2564 84.8313 31.1163C82.6999 30.9262 80.5985 29.7554 80.5985 29.7554C80.5985 29.7554 82.2396 32.187 84.2209 33.0676C86.1121 33.8982 87.0828 34.0583 88.4737 33.8581C89.7445 33.678 91.1254 32.087 92.6264 30.9162C94.8079 29.2251 96.7592 27.2938 98.8305 26.6033C101.092 25.8528 103.724 25.7327 103.964 27.1137C104.124 28.0443 103.524 28.3645 102.653 28.5046C100.562 28.8348 98.6204 29.6453 96.7091 31.0162C93.9073 33.0376 92.1361 35.8995 89.6244 36.7C88.4637 37.0702 87.8433 37.1203 86.4724 36.9101C84.491 36.6099 82.3196 35.0689 82.3196 35.0689C82.3196 35.0689 84.0007 38.3411 86.6725 39.0316C88.0634 39.3918 89.2242 39.5119 90.455 39.1016C91.8759 38.6313 93.3869 36.9802 95.4383 35.3091C96.7692 34.2284 98.1201 33.3578 98.8305 32.9175C99.9213 32.2471 100.842 31.8868 101.702 31.4966C103.193 30.8061 104.104 30.9962 104.484 31.7067C104.965 32.6073 104.214 33.2077 103.203 33.718C102.473 34.0883 99.9113 35.3691 98.5704 36.3498C96.2588 38.0309 94.4677 39.8821 93.467 40.5325C92.8066 40.9628 92.3062 41.4331 91.4957 41.7934C91.1455 41.9435 90.7452 42.0836 90.2449 42.1836C89.7946 42.2737 89.2742 42.3437 88.6438 42.3738C87.3129 42.4338 85.3316 41.3631 85.3316 41.3631C85.3316 41.3631 86.2622 42.4638 87.463 43.1843C87.5831 43.2543 87.6932 43.3244 87.8133 43.3844C88.8039 43.8948 90.5551 43.9148 91.2155 43.8447C93.517 43.6146 94.4476 42.674 95.6184 41.9135C96.2989 41.4732 96.9193 40.8928 97.4296 40.4025C97.7899 40.0522 98.1001 39.742 98.3002 39.5819C98.7905 39.1917 101.042 37.1003 103.874 36.5699C105.805 36.2097 106.486 36.4799 106.766 37.3104C107.056 38.171 106.406 38.7614 105.515 38.8314C104.644 38.9015 103.834 38.9815 102.943 39.3418C102.653 39.4618 102.343 39.6219 102.043 39.8221C100.492 40.8127 98.8906 42.6239 97.7899 43.5345C96.479 44.6152 95.5584 45.4858 93.9273 45.9761C92.5664 46.3764 90.0647 45.8361 90.0647 45.8361C90.0647 45.8361 92.6064 47.6973 94.0374 47.4371C96.9993 46.8868 97.98 46.0262 99.7712 44.4551C101.082 43.3144 102.013 42.2537 104.184 41.7433C106.476 41.203 110.728 42.8741 111.719 43.2043C112.71 43.5345 115.512 44.3951 116.802 44.3451C117.963 44.295 120.185 43.4145 120.245 43.9148C120.305 44.4151 119.734 44.8354 119.734 44.8354C119.734 44.8354 118.063 45.686 116.712 45.746C115.361 45.806 111.719 44.7153 111.719 44.7153C111.719 44.7153 114.381 46.8467 115.492 47.0669C117.783 47.5172 121.105 47.1369 122.296 46.8567C123.487 46.5866 124.147 46.0962 124.708 45.786C125.268 45.4758 126.249 45.1456 126.739 45.9361C127.049 46.4365 126.599 46.9668 126.599 46.9668C126.599 46.9668 126.239 47.4271 125.498 47.7673C125.198 47.9074 124.638 48.1276 123.957 48.2677C123.127 48.4378 121.946 48.4478 121.946 48.4478C121.946 48.4478 123.797 48.9881 124.317 49.0082C124.838 49.0282 125.918 48.808 126.519 48.6179C127.119 48.4278 129.001 47.5672 129.211 47.4871C129.591 47.3371 131.012 46.8968 131.542 47.0669C132.083 47.247 132.643 47.6673 132.453 48.3777C132.293 48.9781 130.892 49.1182 130.451 49.1683C130.051 49.2183 128.64 49.2883 128.64 49.2883C128.64 49.2883 130.301 49.7587 130.612 49.7887C130.922 49.8287 131.612 49.9188 131.852 49.9288C132.093 49.9388 132.833 49.9088 133.524 49.7186C134.214 49.5285 134.494 49.2283 134.684 49.1182C134.804 49.0482 135.305 48.6179 135.795 48.3477C136.075 48.1976 136.345 48.0875 136.556 48.1176C136.886 48.1676 137.156 48.4078 137.226 48.6879C137.276 48.8581 137.276 49.0782 137.236 49.3584C137.226 49.4184 137.226 49.4785 137.216 49.5485C137.166 49.8787 137.026 50.1989 136.886 50.4791C136.636 50.9394 136.355 51.2697 136.355 51.2697C136.355 51.2697 136.736 51.3097 137.116 51.1796C137.496 51.0495 137.866 50.6693 137.866 50.6693C137.866 50.6693 138.057 50.4091 138.167 50.0488C138.197 49.9288 138.227 49.7987 138.227 49.6586C138.247 49.1182 138.237 48.0175 138.237 48.0175C138.237 48.0175 138.357 47.4271 138.557 47.1669C138.757 46.9068 139.658 46.2964 139.658 46.2964C139.658 46.2964 139.988 46.4365 140.248 46.0262C140.568 45.5258 140.208 44.3551 140.208 44.3551C140.208 44.3551 139.948 45.0856 139.868 45.2357C139.788 45.3858 139.347 45.786 139.347 45.786C139.347 45.786 138.877 45.746 138.727 45.6759C138.397 45.5258 138.027 45.2056 138.027 45.2056C138.027 45.2056 138.437 44.255 138.507 43.8147C138.577 43.3744 138.507 43.0642 138.507 43.0642C138.507 43.0642 138.387 43.4145 138.087 43.8347C137.776 44.255 137.176 44.5752 137.176 44.5752C137.176 44.5752 136.135 44.5752 135.085 44.175C134.034 43.7647 133.814 43.2243 133.814 43.2243C133.814 43.2243 133.714 42.2137 133.183 41.9235C132.663 41.6433 130.792 41.0629 130.792 41.0629C130.792 41.0629 130.181 40.7527 129.401 40.3124C129.971 40.1923 130.532 40.0422 130.662 40.0422C130.882 40.0522 131.652 40.0022 132.153 40.2423C132.663 40.4825 133.363 41.1129 133.363 41.1129C133.363 41.1129 134.374 42.0636 134.964 42.1736C135.495 42.2737 136.956 42.3437 137.686 42.3437C138.207 42.3437 140.778 41.8434 140.778 41.8434C140.778 41.8434 137.386 41.9435 137.016 41.9135C136.646 41.8734 135.525 41.7533 135.085 41.4632C134.854 41.3131 133.614 40.1623 133.614 40.1623C133.614 40.1623 133.343 39.8321 132.473 39.4118C131.602 38.9915 129.851 38.9915 129.631 39.0015C129.471 39.0115 128.05 38.9315 127.259 39.0616C126.659 38.6813 126.169 38.3211 125.969 38.0809C125.298 37.2404 125.328 36.64 125.328 36.64C125.228 35.9495 125.268 35.249 125.438 34.5786C125.468 34.6086 125.708 34.9388 125.788 35.0889C125.898 35.3191 126.029 35.5292 126.169 35.7394C126.309 35.9495 126.509 36.1096 126.739 36.2097C126.729 36.5699 126.709 37.0302 126.639 37.1703C126.509 37.4205 126.179 37.7707 126.179 37.7707C126.179 37.7707 126.969 37.8808 127.55 37.2804C127.78 37.0402 127.94 36.8401 128.05 36.69C128.58 36.9602 129.291 37.3004 129.581 37.4005C130.081 37.5806 131.732 38.0309 132.253 38.161C132.773 38.2911 136.325 38.9115 137.006 38.8915C137.686 38.8714 139.267 38.5712 139.267 38.5712C139.227 38.6313 139.197 38.7013 139.147 38.7514C139.077 38.8214 139.648 40.2524 139.768 40.3624C139.888 40.4725 140.618 40.4425 140.748 40.4025C140.848 40.3724 140.938 40.3524 141.038 40.3524C141.069 40.4825 141.069 40.6126 141.049 40.7427C141.008 40.9828 141.589 41.4431 141.609 41.4031C141.909 40.7827 142.439 40.3124 143.09 40.0923C143.13 40.0722 143.18 40.0622 143.22 40.0622C143.28 40.0722 143.34 40.0923 143.39 40.1323C143.5 40.2323 143.58 40.3624 143.62 40.5025C143.63 40.6626 143.61 40.8327 143.56 40.9828C143.49 41.213 143.41 41.4431 143.32 41.6733C143.22 41.9235 143.17 42.1836 143.15 42.4538C143.29 42.4438 143.43 42.4038 143.55 42.3237C143.71 42.2237 143.86 42.0936 143.98 41.9435L144.481 41.293C144.501 41.273 144.511 41.253 144.531 41.233C144.611 41.1029 144.661 40.9528 144.681 40.7927L144.731 40.3524C144.741 40.2223 144.781 40.0923 144.841 39.9822C144.921 39.8421 145.041 39.722 145.191 39.662C145.291 39.5919 145.401 39.5419 145.521 39.5119C145.752 39.4518 145.982 39.4018 146.222 39.3918C146.452 39.3718 146.682 39.3418 146.912 39.2917C147.062 39.2617 147.203 39.1917 147.333 39.1016C147.483 38.9815 147.583 38.8214 147.613 38.6313L147.543 38.3411C147.523 38.271 147.513 38.201 147.513 38.131C147.513 38.0909 147.523 38.0509 147.543 38.0109C147.563 37.9708 147.603 37.9308 147.653 37.9208C147.703 37.9008 147.753 37.8908 147.803 37.9008C147.913 37.8808 148.023 37.8608 148.133 37.8508C148.273 37.8408 148.423 37.8207 148.563 37.7907C148.724 37.7607 148.864 37.6807 148.974 37.5606C148.944 37.5105 148.934 37.4405 148.944 37.3805C148.954 37.3404 148.974 37.3004 148.994 37.2604C149.024 37.2103 149.044 37.1603 149.074 37.1103C149.104 37.0502 149.104 36.9802 149.094 36.9202L148.964 36.8901C148.563 36.7901 148.193 36.5899 147.903 36.2997C147.863 36.2097 147.853 36.0996 147.873 35.9995C147.893 35.8695 148.784 34.9088 148.784 34.9088C149.124 34.6486 150.335 33.4178 150.595 33.0576C150.845 32.6974 151.295 31.7167 151.335 30.686C151.375 29.6553 151.015 28.7948 150.815 28.3445C150.615 27.8942 149.744 26.8435 149.104 26.3632C148.463 25.8828 147.443 25.7027 146.402 25.5526C145.361 25.4025 143.36 25.4626 143.36 25.4626C143.36 25.4626 141.039 25.8628 138.917 25.2224C137.976 24.9422 137.496 24.0016 137.396 23.6614C137.296 23.3211 136.866 20.1591 136.866 20.1591C136.866 20.1591 136.425 17.3472 136.195 16.8369C135.965 16.3365 135.315 15.4059 135.055 15.1357C134.794 14.8655 134.294 14.4753 133.784 14.1851C133.273 13.8949 131.902 13.6047 131.902 13.6047L129.491 13.1244C129.491 13.1244 128.67 13.0543 127.96 12.504C127.249 11.9536 126.769 10.8029 126.769 10.8029C126.769 10.8029 127.199 12.3039 127.77 12.8742C128.34 13.4446 131.092 13.8549 131.092 13.8549C131.092 13.8549 133.954 14.2752 135.115 16.1064C135.895 17.3272 136.125 19.4786 136.125 19.4786L136.736 23.7314C136.736 23.7314 137.146 25.0723 137.826 25.5126C138.507 25.9529 140.108 26.3131 141.609 26.3331C142.179 26.3431 144.801 26.0329 146.362 26.4032C147.923 26.7634 148.433 27.5139 148.433 27.5139C149.104 28.1043 149.554 28.9048 149.724 29.7854C149.754 29.9756 149.764 30.1657 149.774 30.3558C149.824 30.9662 149.724 31.5766 149.514 32.137C149.514 32.137 149.344 32.5573 148.824 33.0276C148.303 33.4979 147.213 33.9282 147.173 33.9282C146.822 33.9382 146.472 33.9482 146.122 33.9882C145.772 34.0182 145.431 34.1383 145.141 34.3384C145.071 34.5586 144.391 35.0189 144.411 34.9088C144.441 34.7687 144.401 34.6186 144.301 34.5186C144.291 34.5086 144.281 34.5086 144.261 34.4985C144.131 34.4285 143.99 34.3885 143.84 34.3885C143.67 34.3785 143.51 34.3785 143.34 34.3785C143.17 34.3785 143.01 34.3585 142.85 34.2984C142.66 34.2584 142.469 34.1883 142.309 34.0983C142.279 34.0783 142.239 34.0483 142.209 34.0282C141.829 34.0483 141.469 34.0883 141.189 34.1283C139.938 34.3484 137.756 35.4192 137.756 35.4192C137.756 35.4192 140.248 33.7681 140.908 33.5079C141.038 33.4579 141.249 33.4178 141.509 33.3778C141.359 33.2077 141.199 33.0276 141.028 32.8775C140.838 32.6974 140.608 32.5573 140.358 32.4772C139.628 32.5473 138.807 32.6773 138.107 32.9175C136.636 33.4178 134.044 35.209 134.044 35.209C134.044 35.209 136.686 32.7074 137.426 32.2571C137.526 32.197 137.896 31.9168 137.896 31.9168C138.097 31.6266 138.257 31.3164 138.387 30.9862C138.537 30.5759 138.507 30.1257 138.317 29.7454C138.167 29.4652 137.956 29.2251 137.686 29.0349C137.356 28.8048 137.026 28.8148 136.656 28.6447C136.606 28.4946 136.546 27.8341 136.155 27.3838C135.815 26.9936 135.075 26.5733 134.794 26.5133C134.294 26.4032 133.694 26.2631 133.153 26.5233C133.033 26.5133 132.043 26.2431 131.672 26.083C131.272 25.9129 130.151 25.5426 130.011 25.4926C129.051 25.1123 128.01 25.0123 126.999 25.1824C126.839 25.1023 125.688 23.7114 125.438 23.5713C125.088 23.3812 124.337 23.101 124.067 22.8108L117.283 13.7748L113.49 8.57138L110.358 4.5187L116.562 15.2058L120.135 20.9496L120.175 20.9996C119.544 20.6494 113.36 14.6754 113.36 14.6754L99.8612 0.786224ZM146.632 37.0602C146.782 37.5205 146.492 38.131 146.492 38.131C146.492 38.131 146.392 37.5205 146.292 37.2203C146.212 36.9802 145.862 36.5299 145.862 36.5299C145.862 36.5299 146.512 36.69 146.632 37.0602ZM141.219 37.9408C141.219 37.9408 141.149 38.5112 141.209 38.7614C141.279 39.0616 141.509 39.642 141.509 39.642C141.509 39.642 140.938 39.2617 140.828 38.8014C140.738 38.4111 141.219 37.9408 141.219 37.9408ZM129.791 30.8361C129.121 30.7661 128.24 30.596 128.24 30.596L127.68 28.9249C127.68 28.9249 128.58 29.0349 128.86 29.135C129.141 29.2351 129.731 29.3752 130.111 29.6253C130.502 29.8755 131.642 30.8061 131.642 30.8061C131.642 30.8061 130.381 30.9062 129.791 30.8361ZM128.94 28.0843C129.521 28.1644 130.381 28.4445 130.682 28.6647C131.402 29.195 131.682 29.9856 131.682 29.9856L131.962 30.8161C131.962 30.8161 131.622 30.1957 131.522 30.0056C131.422 29.8154 131.012 29.145 130.502 28.8348C130.121 28.6046 129.271 28.3545 128.961 28.2944C128.64 28.2344 127.279 28.1744 127.279 28.1744C127.279 28.1744 128.36 28.0042 128.94 28.0843ZM124.027 31.1763L124.678 32.187C124.678 32.187 124.658 31.8468 124.708 31.4265C124.758 31.0162 125.178 29.9455 125.178 29.9455L125.198 31.0363C125.198 31.0363 125.178 31.4565 125.368 31.9068C125.568 32.3571 126.009 32.8174 126.009 32.8174C126.009 32.8174 126.459 33.4178 126.549 33.738C126.649 34.0583 126.379 34.3885 126.379 34.3885C126.379 34.3885 125.838 33.4679 125.378 33.1877C124.908 32.8975 124.097 32.8174 124.097 32.8174L123.847 33.3378C123.847 33.3378 123.347 34.5086 123.507 34.8888C123.957 35.9495 124.778 37.4905 124.778 37.4905L123.727 36.4699C123.727 36.4699 122.406 34.9989 122.116 34.2784C121.836 33.5579 121.726 32.4672 121.726 32.4672L122.436 33.718C122.436 33.718 123.167 31.8068 122.846 30.8762C122.536 29.9455 121.566 28.4545 121.566 28.4545L124.027 31.1763Z" fill="url(#paint8_linear_114_19)"/>
</g>
</g>
</g>
<defs>
<linearGradient id="paint0_linear_114_19" x1="32.8393" y1="14.7865" x2="167.605" y2="14.7865" gradientUnits="userSpaceOnUse">
<stop offset="0.0122699" stop-color="#EC1C24"/>
<stop offset="0.0604705" stop-color="#ED2D25"/>
<stop offset="0.1485" stop-color="#EF4627"/>
<stop offset="0.2291" stop-color="#F05528"/>
<stop offset="0.2945" stop-color="#F05A28"/>
<stop offset="1" stop-color="#F6921E"/>
</linearGradient>
<linearGradient id="paint1_linear_114_19" x1="32.8392" y1="15.3117" x2="167.606" y2="15.3117" gradientUnits="userSpaceOnUse">
<stop offset="0.0122699" stop-color="#EC1C24"/>
<stop offset="0.0604705" stop-color="#ED2D25"/>
<stop offset="0.1485" stop-color="#EF4627"/>
<stop offset="0.2291" stop-color="#F05528"/>
<stop offset="0.2945" stop-color="#F05A28"/>
<stop offset="1" stop-color="#F6921E"/>
</linearGradient>
<linearGradient id="paint2_linear_114_19" x1="32.8393" y1="20.1451" x2="167.606" y2="20.1451" gradientUnits="userSpaceOnUse">
<stop offset="0.0122699" stop-color="#EC1C24"/>
<stop offset="0.0604705" stop-color="#ED2D25"/>
<stop offset="0.1485" stop-color="#EF4627"/>
<stop offset="0.2291" stop-color="#F05528"/>
<stop offset="0.2945" stop-color="#F05A28"/>
<stop offset="1" stop-color="#F6921E"/>
</linearGradient>
<linearGradient id="paint3_linear_114_19" x1="32.8393" y1="16.0506" x2="167.605" y2="16.0506" gradientUnits="userSpaceOnUse">
<stop offset="0.0122699" stop-color="#EC1C24"/>
<stop offset="0.0604705" stop-color="#ED2D25"/>
<stop offset="0.1485" stop-color="#EF4627"/>
<stop offset="0.2291" stop-color="#F05528"/>
<stop offset="0.2945" stop-color="#F05A28"/>
<stop offset="1" stop-color="#F6921E"/>
</linearGradient>
<linearGradient id="paint4_linear_114_19" x1="32.8392" y1="38.3275" x2="167.606" y2="38.3275" gradientUnits="userSpaceOnUse">
<stop offset="0.0122699" stop-color="#EC1C24"/>
<stop offset="0.0604705" stop-color="#ED2D25"/>
<stop offset="0.1485" stop-color="#EF4627"/>
<stop offset="0.2291" stop-color="#F05528"/>
<stop offset="0.2945" stop-color="#F05A28"/>
<stop offset="1" stop-color="#F6921E"/>
</linearGradient>
<linearGradient id="paint5_linear_114_19" x1="32.8391" y1="89.9704" x2="167.606" y2="89.9704" gradientUnits="userSpaceOnUse">
<stop offset="0.0122699" stop-color="#EC1C24"/>
<stop offset="0.0604705" stop-color="#ED2D25"/>
<stop offset="0.1485" stop-color="#EF4627"/>
<stop offset="0.2291" stop-color="#F05528"/>
<stop offset="0.2945" stop-color="#F05A28"/>
<stop offset="1" stop-color="#F6921E"/>
</linearGradient>
<linearGradient id="paint6_linear_114_19" x1="32.8393" y1="84.2619" x2="167.605" y2="84.2619" gradientUnits="userSpaceOnUse">
<stop offset="0.0122699" stop-color="#EC1C24"/>
<stop offset="0.0604705" stop-color="#ED2D25"/>
<stop offset="0.1485" stop-color="#EF4627"/>
<stop offset="0.2291" stop-color="#F05528"/>
<stop offset="0.2945" stop-color="#F05A28"/>
<stop offset="1" stop-color="#F6921E"/>
</linearGradient>
<linearGradient id="paint7_linear_114_19" x1="32.8393" y1="85.4503" x2="167.605" y2="85.4503" gradientUnits="userSpaceOnUse">
<stop offset="0.0122699" stop-color="#EC1C24"/>
<stop offset="0.0604705" stop-color="#ED2D25"/>
<stop offset="0.1485" stop-color="#EF4627"/>
<stop offset="0.2291" stop-color="#F05528"/>
<stop offset="0.2945" stop-color="#F05A28"/>
<stop offset="1" stop-color="#F6921E"/>
</linearGradient>
<linearGradient id="paint8_linear_114_19" x1="32.8392" y1="26.0418" x2="167.605" y2="26.0418" gradientUnits="userSpaceOnUse">
<stop offset="0.0122699" stop-color="#EC1C24"/>
<stop offset="0.0604705" stop-color="#ED2D25"/>
<stop offset="0.1485" stop-color="#EF4627"/>
<stop offset="0.2291" stop-color="#F05528"/>
<stop offset="0.2945" stop-color="#F05A28"/>
<stop offset="1" stop-color="#F6921E"/>
</linearGradient>
</defs>
</svg>
